<svg xmlns:xlink="http://www.w3.org/1999/xlink" xmlns="http://www.w3.org/2000/svg" width="396" height="319" viewBox="0 0 396 319" fill="none">
<g opacity="0.2" clip-path="url(#clip0_1589_2577)">
<path d="M210.629 176.918L203.05 169.254L197.329 174.783L193.572 168.043L187.846 173.575L186.006 167.621L180.764 164.173L187.751 160.315L182.32 154.844L189.318 150.421L183.745 141.297L191.611 149.251L197.333 143.723L201.09 150.463L206.816 144.931L208.655 150.885L213.898 154.333L206.91 158.191L212.36 163.68L205.377 167.537L210.629 176.918ZM193.733 166.958L197.489 173.698L203.061 168.314L207.636 172.94L204.464 167.276L211.261 163.523L205.812 158.034L212.605 154.283L208.087 151.312L206.498 146.167L200.929 151.548L197.172 144.808L191.6 150.191L187.314 145.857L190.232 150.634L183.382 154.964L188.85 160.472L182.057 164.223L186.574 167.194L188.164 172.338L193.733 166.958Z" fill="white"/>
<path d="M189.806 179.869L191.908 169.582L183.223 168.079L186.963 161.205L178.272 159.701L182.535 154.811L182.333 148.633L190.292 152.106L191.81 144.592L200.291 147.753L204.929 138.281L202.754 148.928L211.439 150.43L207.699 157.304L216.39 158.808L212.128 163.698L212.33 169.877L204.37 166.403L202.847 173.94L194.895 170.47L189.806 179.869ZM184.256 167.58L192.701 169.04L191.363 175.588L194.599 169.612L202.356 172.996L203.879 165.459L211.627 168.841L211.451 163.458L215.105 159.264L206.666 157.804L210.406 150.93L201.961 149.469L203.226 143.28L200.625 148.591L192.311 145.492L190.784 153.051L183.035 149.669L183.212 155.052L179.557 159.245L187.997 160.705L184.256 167.58Z" fill="white"/>
<path d="M197.251 177.421L195.343 169.008L187.513 172.054L185.607 163.648L173.771 164.862L184.503 160.713L180.337 152.819L188.977 151.948L184.811 144.052L191.965 144.73L197.411 141.09L199.319 149.502L207.128 146.465L209.651 155.126L221.263 153.505L210.159 157.798L214.325 165.692L205.685 166.562L209.851 174.459L202.698 173.781L197.251 177.421ZM195.824 168.104L197.688 176.325L202.524 173.093L208.683 173.677L204.63 165.997L213.27 165.126L209.216 157.445L215.627 154.967L209.171 155.868L206.69 147.353L198.838 150.407L196.974 142.186L192.138 145.418L185.98 144.834L190.032 152.514L181.392 153.385L185.446 161.066L178.663 163.688L186.127 162.922L187.994 171.15L195.824 168.104Z" fill="white"/>
<path d="M191.471 177.99L187.569 171.866L180.766 169.509L187.209 163.183L179.447 158.561L185.886 152.237L177.295 143.386L187.849 149.698L192.37 141.852L198.669 148.365L203.192 140.516L207.094 146.639L213.897 148.996L207.454 155.322L215.194 159.931L208.916 166.898L217.728 175.334L206.814 168.808L202.293 176.654L195.994 170.14L191.471 177.99ZM182.004 169.231L188.008 171.31L191.442 176.7L195.858 169.038L202.156 175.551L206.574 167.885L212.985 171.719L207.985 166.933L214.151 160.088L206.366 155.453L212.659 149.275L206.655 147.195L203.221 141.805L198.805 149.468L192.506 142.954L188.089 150.621L181.319 146.572L186.83 152.249L180.535 158.43L188.296 163.052L182.004 169.231Z" fill="white"/>
<path d="M195.708 184.641L194.715 172.373L184.692 173.162L186.606 164.354L176.576 165.144L179.664 158.499L177.475 151.649L187.341 153.282L186.6 144.362L196.458 145.993L198.986 134.242L199.948 146.139L209.971 145.35L208.057 154.157L218.087 153.368L214.999 160.013L217.187 166.863L207.322 165.23L208.061 174.126L197.719 172.992L195.708 184.641ZM195.327 171.654L195.948 179.32L197.168 172.259L207.327 173.373L206.585 164.43L216.218 166.024L214.283 159.968L216.998 154.124L207.213 154.894L209.127 146.087L199.335 146.858L198.685 138.82L196.978 146.757L187.337 145.162L188.078 154.082L178.445 152.487L180.38 158.544L177.665 164.387L187.45 163.617L185.536 172.425L195.327 171.654Z" fill="white"/>
<path d="M203.072 179.634L198.279 170.721L190.65 176.374L185.1 167.355L173.247 172.325L183.749 164.577L176.64 156.893L185.876 153.443L178.765 145.757L186.795 144.486L191.591 138.871L196.384 147.784L204.031 142.118L208.82 151.024L221.107 146.409L210.915 153.929L218.023 161.612L208.787 165.062L215.898 172.748L207.868 174.019L203.072 179.634ZM198.502 169.724L203.198 178.457L207.52 173.397L214.557 172.283L207.619 164.784L216.855 161.335L209.916 153.834L216.84 148.726L208.508 151.856L203.808 143.115L196.161 148.781L191.465 140.048L187.143 145.108L180.107 146.222L187.044 153.721L177.807 157.17L184.747 164.671L178.132 169.551L185.369 166.517L190.837 175.403L198.502 169.724Z" fill="white"/>
<path d="M196.855 181.932L190.636 176.192L182.468 175.491L187.524 166.544L177.519 163.568L182.19 153.944L170.114 147.154L183.862 151.273L186.322 141.161L195.347 146.693L197.807 136.578L204.026 142.318L212.194 143.02L207.138 151.966L217.168 154.95L212.114 163.893L224.142 171.234L210.8 167.238L208.341 177.349L199.315 171.817L196.855 181.932ZM183.562 174.914L190.921 175.546L196.473 180.67L198.882 170.768L207.908 176.3L210.316 166.395L219.376 169.109L211.214 164.127L216.173 155.351L206.143 152.367L211.1 143.597L203.741 142.965L198.188 137.84L195.78 147.742L186.754 142.21L184.346 152.116L175.691 149.523L183.066 153.67L178.464 163.151L188.519 166.143L183.562 174.914Z" fill="white"/>
<path d="M203.461 187.563L198.68 174.698L187.915 178.444L187.198 167.982L176.427 171.731L177.684 163.45L173.108 156.413L184.479 155.433L180.811 145.627L192.551 143.949L191.067 130.582L195.982 143.808L206.747 140.062L207.464 150.524L218.236 146.776L216.978 155.057L221.554 162.093L210.183 163.073L213.86 172.903L202.495 173.883L203.461 187.563ZM199.079 173.851L202.466 182.967L201.781 173.273L212.924 172.313L209.248 162.483L220.385 161.523L216.279 155.208L216.298 155.082L217.408 147.772L206.857 151.443L206.14 140.981L195.584 144.655L192.33 135.901L193.287 144.52L181.729 146.171L185.414 156.024L174.277 156.984L178.383 163.298L178.364 163.424L177.254 170.735L187.805 167.063L188.522 177.525L199.079 173.851Z" fill="white"/>
<path d="M210.169 180.469L202.041 171.815L195.437 180.379L187.314 171.731L175.559 180.225L184.158 169.123L173.881 162.516L182.946 155.993L172.666 149.383L181.031 145.689L184.493 138.038L192.621 146.693L199.212 138.146L208.21 146.705L219.33 137.988L210.505 149.384L220.781 155.991L211.716 162.514L221.996 169.124L213.632 172.819L210.169 180.469ZM187.399 170.844L195.387 179.349L201.991 170.785L209.972 179.283L213.128 172.31L220.59 169.015L210.528 162.545L219.594 156.022L209.529 149.552L215.503 141.839L208.168 147.588L199.288 139.141L192.671 147.723L184.69 139.224L181.534 146.197L174.073 149.493L184.134 155.962L175.069 162.485L185.134 168.956L178.932 176.963L187.399 170.844Z" fill="white"/>
<path d="M204.028 184.836L195.386 180.178L186.24 181.711L188.935 170.212L176.932 169.72L179.625 158.226L164.358 153.502L179.989 154.173L179.454 142.1L191.169 145.748L190.634 133.672L199.276 138.33L208.422 136.798L205.727 148.296L217.706 148.787L215.651 160.942L230.723 165.024L214.673 164.335L215.208 176.408L203.493 172.761L204.028 184.836ZM195.502 179.481L203.308 183.689L202.784 171.839L214.498 175.487L213.972 163.636L224.747 164.098L214.89 161.428L216.92 149.424L204.891 148.931L207.542 137.623L199.16 139.028L191.354 134.82L191.878 146.669L180.164 143.021L180.69 154.873L169.496 154.392L180.418 157.771L177.767 169.085L189.77 169.577L187.12 180.885L195.502 179.481Z" fill="white"/>
<path d="M213.244 189.407L203.773 176.182L193.136 183.465L188.991 171.893L178.348 179.179L177.087 169.573L169.842 163.006L182.032 158.66L174.83 148.645L187.015 144.3L181.652 129.426L190.89 142.325L201.527 135.042L205.673 146.614L216.315 139.328L217.576 148.934L224.822 155.501L212.632 159.847L219.819 169.841L207.441 175.079L213.244 189.407ZM203.936 175.261L210.512 184.445L206.574 174.72L218.787 169.552L211.57 159.516L223.545 155.246L216.946 149.265L216.929 149.143L215.794 140.495L205.336 147.656L201.19 136.083L190.728 143.247L183.918 133.737L187.871 144.704L175.891 148.977L183.093 158.992L171.118 163.261L177.717 169.243L177.733 169.365L178.868 178.012L189.328 170.852L193.473 182.424L203.936 175.261Z" fill="white"/>
<path d="M180.137 189.093L186.059 174.102L172.643 169.608L180.534 159.675L167.113 155.178L175.075 148.681L176.428 139.122L188.145 146.535L192.67 135.006L204.38 142.414L214.391 129.758L208.603 144.408L222.019 148.902L214.128 158.835L227.549 163.332L219.587 169.829L218.234 179.388L206.517 171.976L202 183.483L189.353 176.424L180.137 189.093ZM173.76 169.277L186.94 173.692L182.693 184.442L189.161 175.551L201.657 182.526L206.191 170.978L217.717 178.27L218.962 169.476L226.187 163.58L213.011 159.167L220.902 149.233L207.722 144.818L212.104 133.727L204.531 143.301L192.997 136.004L188.471 147.532L176.945 140.24L175.7 149.034L168.475 154.93L181.651 159.343L173.76 169.277Z" fill="white"/>
<path d="M192.365 187.619L191.645 173.921L178.291 176.793L176.658 162.536L159.195 162.256L176.667 158.534L172.209 145.108L186.279 145.867L181.822 132.439L192.779 135.198L202.299 130.887L203.018 144.585L216.395 141.708L217.115 155.401L235.069 156.335L217.996 159.972L222.454 173.397L208.384 172.639L212.842 186.067L201.884 183.307L192.365 187.619ZM192.272 173.102L192.981 186.606L201.822 182.602L211.823 185.121L207.44 171.918L221.51 172.677L217.127 159.473L229.963 156.739L216.479 156.037L215.769 142.527L202.391 145.404L201.683 131.9L192.842 135.904L182.84 133.385L187.224 146.587L173.153 145.829L177.537 159.033L165.099 161.682L177.256 161.877L178.872 175.984L192.272 173.102Z" fill="white"/>
<path d="M223.936 188.101L209.84 176.397L200.471 187.623L192.195 175.781L182.823 187.011L178.38 176.62L168.363 171.335L180.377 162.969L169.253 153.771L181.192 144.346L170.408 130.141L184.823 142.109L194.191 130.882L202.468 142.725L211.839 131.495L216.283 141.885L226.299 147.171L214.285 155.536L225.429 164.752L213.419 173.116L223.936 188.101ZM192.242 174.681L200.518 186.523L209.753 175.456L220.517 184.393L212.486 172.95L224.325 164.706L213.181 155.491L225.016 147.25L215.761 142.366L211.654 132.761L202.42 143.825L194.143 131.982L184.909 143.049L174.463 134.377L182.122 144.464L170.317 153.783L181.481 163.015L169.646 171.256L178.901 176.14L183.009 185.745L192.242 174.681Z" fill="white"/>
<path d="M188.088 196.987L189.735 179.14L173.543 177.917L179.046 164.479L162.847 163.255L169.482 153.737L167.912 142.634L183.179 147.626L184.463 133.377L200.646 137.707L206.608 121.152L204.927 139.366L221.12 140.589L215.616 154.027L231.816 155.251L225.181 164.769L226.751 175.872L211.484 170.88L210.197 185.152L194.937 180.163L188.088 196.987ZM174.51 177.32L190.463 178.524L189.168 192.561L194.553 179.334L209.607 184.255L210.893 169.984L225.939 174.903L224.482 164.602L230.597 155.829L214.649 154.625L220.153 141.186L204.199 139.982L205.46 126.312L201.067 138.511L185.057 134.228L183.77 148.522L168.724 143.603L170.18 153.904L164.065 162.677L180.013 163.882L174.51 177.32Z" fill="white"/>
<path d="M200.977 192.516L195.795 177.315L181.986 184.376L176.806 169.182L157.11 173.185L174.415 164.38L165.208 150.553L180.947 147.385L171.739 133.555L184.628 133.53L193.685 125.992L198.867 141.193L212.655 134.142L219.023 149.712L237.902 145.144L220.246 154.128L229.453 167.955L213.714 171.123L222.922 184.953L210.034 184.977L200.977 192.516ZM196.179 176.367L201.295 191.38L209.791 184.309L221.676 184.287L212.606 170.664L228.345 167.496L219.273 153.873L232.512 147.136L218.621 150.497L212.312 135.068L198.483 142.14L193.366 127.128L184.871 134.199L172.985 134.221L182.055 147.844L166.317 151.011L175.389 164.635L161.798 171.55L177.25 168.409L182.37 183.429L196.179 176.367Z" fill="white"/>
<path d="M190.239 194.553L182.05 184.173L169.403 181.106L179.937 168.27L164.709 161.081L175.24 148.248L159.082 134.579L178.088 143.596L184.797 128.294L197.711 139.259L204.423 123.953L212.612 134.333L225.259 137.401L214.725 150.236L229.929 157.414L219.814 171.423L235.961 184.108L216.574 174.91L209.865 190.213L196.951 179.247L190.239 194.553ZM170.595 180.707L182.432 183.578L182.504 183.669L190.074 193.265L196.7 178.156L209.613 189.122L216.239 174.011L230.85 180.942L218.896 171.552L228.916 157.675L213.664 150.475L224.067 137.8L212.23 134.928L212.159 134.838L204.589 125.242L197.963 140.35L185.049 129.384L178.423 144.495L163.431 137.383L176.175 148.163L165.77 160.842L180.997 168.032L170.595 180.707Z" fill="white"/>
<path d="M199.31 204.41L195.38 183.751L177.178 186.999L178.929 170.298L160.72 173.546L164.945 161.016L159.677 149.014L178.075 150.269L174.914 133.836L193.306 135.089L195.423 114.473L199.282 134.762L217.485 131.514L215.734 148.214L233.944 144.966L229.717 157.496L234.986 169.498L216.588 168.244L219.744 184.653L200.546 184.405L199.31 204.41ZM195.914 182.977L198.971 199.05L199.918 183.728L218.933 183.974L215.767 167.518L233.93 168.756L229.001 157.528L232.949 145.823L214.976 149.029L216.727 132.328L198.749 135.536L195.621 119.092L193.905 135.8L175.735 134.562L178.896 150.995L160.733 149.757L165.662 160.985L161.714 172.69L179.687 169.484L177.936 186.185L195.914 182.977Z" fill="white"/>
<path d="M212.007 195.564L201.432 179.944L188.507 191.825L176.507 176.125L157.571 186.451L173.816 171.581L159.256 158.659L175.571 150.595L161.008 137.669L175.126 133.976L182.655 122.941L193.23 138.562L206.171 126.666L216.742 142.279L236.811 132.31L220.845 146.924L235.406 159.847L219.091 167.911L233.654 180.837L219.536 184.53L212.007 195.564ZM201.551 178.927L212.009 194.375L219.124 183.946L232.274 180.506L217.904 167.752L234.22 159.687L219.847 146.932L232.862 135.019L216.516 143.138L206.052 127.683L193.11 139.579L182.653 124.131L175.537 134.559L162.388 137.999L176.758 150.754L160.442 158.818L174.815 171.574L162.079 183.231L176.69 175.264L188.593 190.838L201.551 178.927Z" fill="white"/>
<path d="M200.803 200.933L188.5 191.622L173.667 191.783L181.143 174.341L162.093 170.604L168.734 151.958L147.246 142.455L171.16 147.191L173.64 128.059L191.378 136.713L193.859 117.578L206.162 126.889L220.995 126.728L213.519 144.171L232.595 147.911L225.121 165.35L247.002 175.975L223.502 171.32L221.023 190.452L203.284 181.798L200.803 200.933ZM188.721 190.951L188.812 191.02L200.288 199.705L202.741 180.789L220.479 189.442L222.93 170.525L242.045 174.311L224.255 165.674L231.654 148.408L212.578 144.668L219.976 127.408L205.941 127.56L205.85 127.491L194.374 118.806L191.922 137.722L174.183 129.069L171.731 147.986L153.032 144.282L169.572 151.597L162.983 170.098L182.084 173.844L174.686 191.103L188.721 190.951Z" fill="white"/>
<path d="M213.693 208.812L203.054 187.314L184.069 196.164L180.64 176.863L161.648 185.715L162.28 170.483L152.668 158.527L173.314 154.683L164.573 137.11L185.782 131.906L180.796 109.344L191.608 131.192L210.593 122.342L214.022 141.643L233.013 132.791L232.382 148.024L241.994 159.979L221.348 163.823L230.101 181.418L209.46 185.262L213.693 208.812ZM203.364 186.432L212.2 204.289L208.684 184.726L229.107 180.923L220.355 163.328L240.772 159.527L231.703 148.247L231.709 148.121L232.3 133.861L213.516 142.617L210.087 123.316L191.298 132.074L182.635 114.568L186.576 132.4L165.543 137.561L174.307 155.179L153.89 158.979L162.959 170.259L162.953 170.385L162.362 184.645L181.146 175.89L184.575 195.19L203.364 186.432Z" fill="white"/>
<path d="M162.748 200.561L175.465 179.839L155.302 169.463L170.685 155.721L150.519 145.342L164.812 137.189L169.55 122.657L186.196 137.211L196.622 120.138L214.865 134.377L232.106 117.633L219.197 138.67L239.359 149.045L223.977 162.787L244.143 173.166L229.849 181.32L225.111 195.851L208.465 181.298L198.028 198.389L181.387 183.841L162.748 200.561ZM181.382 182.948L197.871 197.363L208.308 180.272L224.789 194.682L229.294 180.867L242.741 173.196L222.807 162.937L238.188 149.195L218.25 138.935L228.748 121.826L214.913 135.262L196.802 121.127L186.353 138.237L169.872 123.827L165.367 137.642L151.921 145.312L171.855 155.572L156.474 169.314L176.412 179.574L165.72 196.997L181.382 182.948Z" fill="white"/>
<path d="M214.463 205.101L197.978 198.157L181.764 202.558L184.4 180.804L162.193 182.045L164.828 160.295L137.677 154.662L164.696 153.204L161.292 130.971L183.602 135.642L180.199 113.406L196.684 120.35L212.898 115.949L210.261 137.703L232.444 136.464L231.112 159.339L257.399 163.823L229.966 165.303L233.37 187.536L211.06 182.865L214.463 205.101ZM198.025 197.452L213.621 204.021L210.253 182.013L232.563 186.684L229.193 164.675L251.396 163.477L230.409 159.897L231.733 137.173L209.501 138.415L212.114 116.854L196.637 121.055L181.04 114.486L184.409 136.494L162.099 131.823L165.468 153.832L142.851 155.052L165.566 159.765L162.953 181.333L185.16 180.092L182.548 201.653L198.025 197.452Z" fill="white"/>
<path d="M231.332 210.396L212.63 189.133L194.574 204.51L184.607 183.763L166.547 199.143L162.374 181.886L148.012 171.217L169.498 160.998L154.216 143.692L175.698 133.474L163.598 108.414L182.033 129.373L200.088 113.995L210.055 134.743L228.116 119.362L232.288 136.62L246.651 147.288L225.164 157.507L240.429 174.793L218.755 186.707L231.332 210.396ZM212.697 188.197L228.066 205.67L217.855 186.439L239.375 174.61L224.075 157.284L245.359 147.162L231.695 137.012L231.667 136.894L227.721 120.576L209.828 135.814L199.861 115.067L181.965 130.308L181.748 130.061L166.328 112.53L176.593 133.789L155.305 143.915L170.587 161.221L149.303 171.344L162.967 181.493L162.995 181.611L166.941 197.929L184.835 182.691L194.801 203.438L212.697 188.197Z" fill="white"/>
<path d="M172.549 215.648L179.919 188.638L154.409 182.726L166.941 162.86L141.425 156.945L154.491 143.741L155.046 126.072L178.035 137.692L184.046 115.469L207.028 127.084L222.018 103.211L214.744 129.868L240.254 135.78L227.722 155.646L253.238 161.561L240.172 174.764L239.617 192.434L216.628 180.814L210.622 203.015L185.973 192.205L172.549 215.648ZM155.477 182.287L180.747 188.144L174.574 210.765L185.691 191.351L210.18 202.091L216.198 179.847L238.981 191.363L239.512 174.48L251.921 161.942L226.655 156.085L239.186 136.219L213.916 130.362L220.185 107.387L207.27 127.956L184.477 116.436L178.465 138.659L155.682 127.142L155.15 144.025L142.742 156.564L168.008 162.421L155.477 182.287Z" fill="white"/>
<path d="M194.112 212.366L190.04 187.139L166.005 194.876L160.137 168.757L130.198 171.186L159.518 161.812L148.644 137.769L174.711 136.651L163.837 112.605L184.162 115.701L200.551 106.145L204.623 131.372L228.681 123.628L232.753 148.85L264.081 147.447L235.145 156.699L246.019 180.742L219.951 181.86L230.826 205.906L210.502 202.81L194.112 212.366ZM190.576 186.264L194.617 211.298L210.369 202.114L229.709 205.059L218.934 181.234L245.003 180.116L234.226 156.29L259.094 148.34L232.188 149.545L228.145 124.503L204.086 132.247L200.046 107.213L184.294 116.397L164.954 113.451L175.728 137.277L149.661 138.395L160.437 162.22L135.952 170.048L160.662 168.043L166.496 194.015L190.576 186.264Z" fill="white"/>
<path d="M176.221 212.862L166.122 194.684L146.957 186.81L167.326 169.178L144.967 154.079L165.005 134.484L143.789 111.663L170.921 130.061L185.864 107.603L203.495 128.11L218.442 105.648L228.541 123.826L247.706 131.701L227.337 149.332L249.718 164.446L229.352 182.077L250.529 206.613L223.742 188.449L208.799 210.908L191.168 190.4L176.221 212.862ZM148.217 186.604L166.593 194.155L176.273 211.578L191.1 189.296L208.731 209.803L223.559 187.517L246.718 203.221L228.41 182.008L248.62 164.512L226.239 149.398L246.447 131.906L228.07 124.355L218.39 106.932L203.563 129.215L185.932 108.708L171.104 130.993L148.291 115.523L165.938 134.506L146.021 153.984L168.424 169.112L148.217 186.604Z" fill="white"/>
<path d="M188.164 229.052L187.629 197.256L157.663 197.891L165.091 171.945L135.117 172.579L145.23 154.058L140.186 134.054L169.215 140.561L168.708 113.849L199.311 118.972L206.493 89.0859L207.034 121.253L237 120.618L229.572 146.564L259.546 145.93L249.433 164.451L254.477 184.455L225.448 177.947L225.956 204.683L196.933 198.178L188.164 229.052ZM188.286 196.573L188.756 224.519L196.462 197.388L225.271 203.844L224.764 177.109L253.563 183.565L248.721 164.361L258.405 146.623L228.679 147.251L236.108 121.306L206.377 121.936L205.913 94.3606L199.815 119.734L169.391 114.642L169.899 141.4L141.1 134.944L145.942 154.148L136.258 171.886L165.983 171.258L158.555 197.203L188.286 196.573Z" fill="white"/>
<path d="M210.828 219.872L198.258 192.649L174.248 208.243L161.679 181.026L127.994 191.446L156.584 172.961L136.907 149.016L165.255 140.307L145.577 116.358L168.887 114.041L183.834 98.6367L196.404 125.86L220.396 110.278L235.229 137.994L266.993 126.852L238.079 145.547L257.755 169.492L229.406 178.202L249.085 202.151L225.775 204.468L210.828 219.872ZM198.541 191.667L211.027 218.707L225.465 203.827L247.775 201.609L228.257 177.855L256.606 169.146L237.086 145.393L261.906 129.345L234.91 138.814L220.149 111.235L196.12 126.841L183.635 99.8016L169.197 114.682L146.888 116.9L166.405 140.653L138.056 149.362L157.576 173.116L132.43 189.374L162.041 180.214L174.531 207.262L198.541 191.667Z" fill="white"/>
<path d="M191.251 225.544L174.339 208.009L150.788 204.634L167.553 178.98L138.058 168.363L154.821 142.711L123.886 121.32L158.918 134.006L168.167 104.466L194.161 122.512L203.412 92.9688L220.324 110.504L243.875 113.879L227.11 139.532L256.58 150.141L240.807 177.913L271.175 197.337L235.745 184.507L226.496 214.047L200.502 196.001L191.251 225.544ZM151.922 204.121L174.661 207.38L174.74 207.463L190.95 224.269L200.136 194.933L226.13 212.979L235.316 183.64L265.752 194.662L239.912 178.134L255.607 150.501L226.087 139.875L242.741 114.392L220.002 111.133L219.922 111.05L203.713 94.2441L194.527 123.58L168.533 105.534L159.347 134.872L128.513 123.707L155.737 142.532L139.08 168.02L168.576 178.638L151.922 204.121Z" fill="white"/>
<path d="M209.682 240.485L198.862 204.738L166.086 214.012L165.945 182.681L133.161 191.955L138.339 168.297L126.396 147.27L160.435 146.299L151.301 116.347L185.334 115.374L185.091 78.3867L195.8 113.767L228.575 104.494L228.716 135.825L261.5 126.55L256.323 150.209L268.265 171.236L234.226 172.207L243.354 202.135L208.021 205.114L209.682 240.485ZM199.312 203.916L208.761 235.135L207.323 204.502L242.472 201.539L233.331 171.564L267.135 170.599L255.615 150.316L255.642 150.191L260.609 127.498L228.052 136.707L227.911 105.377L195.35 114.589L185.789 83.0043L186.007 116.024L152.196 116.99L161.33 146.942L127.527 147.906L139.047 168.19L139.02 168.315L134.053 191.008L166.61 181.798L166.75 213.129L199.312 203.916Z" fill="white"/>
<path d="M231.623 223.545L209.056 196.502L187.63 220.904L187.378 220.634L162.411 193.95L131.364 215.323L156.932 186.33L127.597 165.009L156.023 147.102L126.686 125.777L151.543 116.532L163.04 94.9609L185.607 122.004L207.047 97.5864L229.611 124.623L263.052 103.464L237.731 132.177L267.066 153.497L238.64 171.405L267.977 192.729L243.12 201.974L231.623 223.545ZM209.069 195.474L231.5 222.355L242.649 201.436L242.768 201.392L266.576 192.537L237.448 171.365L265.875 153.458L236.744 132.286L259.456 106.53L229.473 125.502L207.034 98.6146L185.594 123.032L163.163 96.1518L152.014 117.07L151.895 117.114L128.087 125.969L157.215 147.142L128.788 165.049L157.919 186.221L135.455 211.696L162.506 193.073L162.703 193.283L187.615 219.908L209.069 195.474Z" fill="white"/>
<path d="M211.85 235.531L187.646 220.654L160.705 223.578L170.934 189.925L135.071 186.405L143.53 150.648L104.248 137.592L146.978 141.867L147.687 105.983L182.102 118.868L182.813 82.9805L207.016 97.8574L233.958 94.9341L223.729 128.587L259.617 132.109L249.39 165.759L289.996 180.878L247.685 176.644L246.976 212.529L212.561 199.644L211.85 235.531ZM187.802 219.965L211.204 234.35L211.911 198.686L246.326 211.572L247.031 175.907L284.908 179.697L248.567 166.166L258.74 132.695L222.852 129.173L233.024 95.7079L206.861 98.5467L183.459 84.162L182.752 119.825L148.337 106.94L147.632 142.605L110.174 138.857L144.322 150.207L135.898 185.815L171.811 189.339L161.639 222.804L187.802 219.965Z" fill="white"/>
<path d="M236.614 246.491L213.613 209.947L180.51 229.745L170.305 194.515L137.194 214.315L135.314 186.28L115.464 166.07L152.62 155.253L132.968 124.168L170.909 110.72L157.836 71.6797L181.048 108.56L214.152 88.7621L224.357 123.991L257.467 104.192L259.348 132.227L279.198 152.437L242.042 163.253L261.708 194.36L224.556 205.178L236.614 246.491ZM213.831 209.038L234.632 242.087L223.727 204.723L260.668 193.967L241.002 162.86L277.937 152.107L258.698 132.519L258.689 132.395L256.873 105.326L223.956 125.01L213.751 89.781L180.83 109.469L160.241 76.7563L171.752 111.131L133.98 124.519L153.66 155.647L116.724 166.399L135.964 185.988L135.973 186.112L137.789 213.181L170.706 193.497L180.911 228.726L213.831 209.038Z" fill="white"/>
<path d="M143.065 240.518L161.598 201.259L122.474 185.65L148.035 157.367L108.905 141.754L133.248 124.29L138.982 96.7627L172.497 120.749L188.268 87.1529L224.678 110.282L251.755 77.6602L233.065 117.251L272.189 132.86L246.628 161.143L285.757 176.755L261.415 194.22L255.681 221.747L222.165 197.761L206.386 231.376L172.875 207.396L143.065 240.518ZM123.614 185.385L162.506 200.901L145.612 236.688L172.778 206.505L206.122 230.365L221.901 196.75L255.235 220.606L260.813 193.828L284.375 176.924L245.488 161.407L271.049 133.125L232.157 117.608L248.894 82.1533L224.816 111.162L188.55 88.1247L172.762 121.759L139.427 97.9036L133.849 124.681L110.287 141.586L149.175 157.102L123.614 185.385Z" fill="white"/>
<path d="M177.677 242.05L178.148 201.259L137.496 207.552L137.965 166.765L88.7646 161.391L136.361 154.118L125.636 113.532L167.669 118.201L156.945 77.6106L188.317 87.424L216.986 76.457L216.515 117.248L257.143 110.959L259.296 153.616L306.305 157.054L258.302 164.389L269.027 204.976L226.995 200.306L237.718 240.897L206.346 231.083L177.677 242.05ZM178.826 200.478L178.357 241.074L206.324 230.376L236.762 239.897L226.099 199.534L268.131 204.203L257.465 163.841L300.344 157.289L258.658 154.24L256.512 111.734L215.837 118.03L216.306 77.433L188.339 88.1315L157.901 78.6102L168.565 118.973L126.532 114.304L137.198 154.667L93.9135 161.281L138.641 166.166L138.637 166.469L138.174 206.77L178.826 200.478Z" fill="white"/>
<path d="M268.663 246.253L231.511 211.595L201.417 243.331L178.879 206.589L148.779 238.327L137.739 207.371L109.462 190.333L146.894 167.547L115.259 138.15L152.688 115.364L126.3 72.5352L163.151 106.912L193.245 75.1766L215.783 111.918L245.883 80.1799L256.924 111.136L285.2 128.174L247.768 150.96L279.384 180.339L241.926 206.313L268.663 246.253ZM178.994 205.496L201.532 242.238L231.482 210.654L264.89 241.818L241.005 206.138L278.32 180.263L246.666 150.849L283.91 128.177L256.374 111.585L256.334 111.473L245.619 81.4299L215.669 113.011L193.131 76.2688L163.18 107.853L129.472 76.408L153.609 115.585L116.361 138.262L147.996 167.659L110.752 190.33L138.289 206.922L138.329 207.034L149.044 237.077L178.994 205.496Z" fill="white"/>
<path d="M163.685 266.261L171.511 216.709L123.441 210.323L123.645 209.907L142.519 171.179L94.4424 164.79L115.594 138.24L113.083 105.658L157.674 123.075L164.268 80.7231L208.854 98.1363L230.921 52.6133L223.152 101.802L271.222 108.188L271.019 108.605L252.144 147.333L300.221 153.722L279.069 180.272L281.581 212.854L236.99 195.437L230.399 237.767L182.891 222.139L163.685 266.261ZM124.449 209.783L172.278 216.137L172.225 216.475L165.162 261.192L182.522 221.313L229.859 236.885L236.457 194.511L280.832 211.844L278.382 180.061L278.465 179.958L298.962 154.229L251.136 147.874L251.34 147.457L270.214 108.729L222.385 102.375L222.438 102.036L229.558 56.9583L209.186 98.9837L208.898 98.8714L164.801 81.6491L158.206 124.001L113.832 106.668L116.281 138.451L116.199 138.554L95.701 164.283L143.527 170.638L143.323 171.055L124.449 209.783Z" fill="white"/>
<path d="M202.267 257.988L189.705 211.948L146.977 230.641L130.928 183.249L78.502 192.733L128.611 170.932L103.788 128.32L151.575 121.563L126.753 78.9475L164.39 81.0245L192.396 60.5195L204.957 106.56L247.707 87.8569L260.269 133.892L315.797 125.932L266.052 147.576L290.875 190.187L243.088 196.945L267.909 239.56L230.273 237.483L202.267 257.988ZM190.147 211.025L202.656 256.874L230.071 236.802L266.707 238.824L242.009 196.422L289.796 189.664L265.096 147.263L310.983 127.298L259.779 134.637L247.266 88.7797L204.515 107.482L192.007 61.6331L164.591 81.7052L127.955 79.6835L152.653 122.086L104.867 128.843L129.567 171.245L84.0442 191.051L131.376 182.488L131.468 182.761L147.376 229.737L190.147 211.025Z" fill="white"/>
<path d="M169.213 262.049L147.161 230.408L110.632 219.333L144.532 182.998L100.288 158.96L133.197 119.027L91.209 81.9423L142.928 110.169L165.884 65.8552L202.489 100.775L225.449 56.457L247.501 88.0986L284.03 99.1735L250.13 135.508L294.397 159.559L260.501 195.894L303.084 236.363L251.734 208.338L228.778 252.651L192.173 217.732L169.213 262.049ZM111.853 219.004L147.577 229.835L169.128 260.759L191.99 216.633L228.595 251.552L251.455 207.423L298.921 233.329L259.56 195.922L293.319 159.734L249.052 135.684L282.808 99.502L247.085 88.6711L225.534 57.7474L202.672 101.874L166.067 66.9542L143.207 111.083L96.1106 85.379L134.124 118.953L133.919 119.202L101.319 158.76L145.61 182.823L111.853 219.004Z" fill="white"/>
<path d="M194.551 288.567L187.365 231.252L132.402 237.8L140.856 188.281L85.8838 194.828L100.629 158.974L87.43 123.06L142.108 129.921L135.789 80.383L193.109 84.3961L200.065 29.5742L207.298 87.2601L262.261 80.7124L253.807 130.232L308.778 123.685L294.033 159.539L307.233 195.452L252.555 188.592L258.877 238.153L204.204 231.296L194.551 288.567ZM187.945 230.51L194.648 283.967L203.651 230.553L258.105 237.382L251.783 187.821L306.226 194.652L293.316 159.525L293.365 159.405L307.727 124.484L252.997 131.001L261.451 81.4821L206.717 88.0025L200.061 34.917L193.692 85.1072L136.555 81.1068L142.88 130.692L88.4368 123.861L101.346 158.987L101.297 159.108L86.9352 194.029L141.665 187.511L133.211 237.03L187.945 230.51Z" fill="white"/>
<path d="M234.434 268.902L205.84 220.675L164.76 253.948L136.166 205.728L77.918 230.41L125.474 192.057L84.4826 151.195L134.941 129.93L93.9486 89.0627L135.995 80.6572L160.229 49.6094L188.823 97.8361L229.885 64.577L262.755 113.332L317.041 87.8616L269.189 126.455L310.18 167.316L259.721 188.582L300.714 229.449L258.668 237.854L234.434 268.902ZM206.02 219.669L234.509 267.718L258.294 237.247L299.355 229.039L258.544 188.352L309.002 167.087L268.189 126.402L268.479 126.168L312.305 90.8227L262.52 114.181L229.739 65.5562L188.642 98.843L160.154 50.793L136.369 81.2642L95.3071 89.473L136.118 130.159L85.6603 151.424L126.473 192.109L126.183 192.343L82.0599 227.929L136.444 204.884L164.941 252.942L206.02 219.669Z" fill="white"/>
<path d="M199.302 282.921L164.91 253.641L121.21 251.617L146.88 201.042L90.4151 186.62L90.6041 186.248L116.082 136.046L56.4893 102.818L121.716 119.61L132.78 63.176L184.292 92.0237L195.36 35.5859L229.751 64.8662L273.452 66.8895L273.217 67.3509L247.782 117.465L304.221 131.88L280.794 186.226L338.582 215.794L272.946 198.897L261.882 255.331L210.37 226.483L199.302 282.921ZM122.275 250.997L165.169 252.983L165.257 253.057L198.866 281.671L209.891 225.449L210.294 225.674L261.403 254.296L272.426 198.073L332.912 213.644L279.932 186.536L280.056 186.249L303.297 132.334L246.807 117.906L246.997 117.534L272.387 67.5097L229.492 65.5237L229.405 65.4496L195.796 36.8354L184.771 93.0579L184.368 92.8325L133.259 64.2104L122.235 120.434L61.34 104.758L116.969 135.775L91.3893 186.179L147.854 200.601L147.665 200.973L122.275 250.997Z" fill="white"/>
<path d="M235.812 305.657L209.467 243.08L151.059 266.153L144.485 207.991L86.0676 231.064L90.7969 186.57L64.7773 149.964L127.175 142.061L104.316 88.0751L166.709 80.17L159.001 13.207L185.195 75.4263L243.604 52.3536L250.177 110.515L308.595 87.4419L303.865 131.936L329.885 168.543L267.487 176.446L290.336 230.408L225.938 242.271L235.812 305.657ZM209.83 242.218L234.312 300.37L225.177 241.731L289.396 229.902L266.528 175.893L328.693 168.02L303.173 132.117L303.186 131.991L307.813 88.4697L249.611 111.458L243.037 53.2964L184.832 76.2884L160.2 17.7792L167.449 80.7502L105.275 88.6276L128.135 142.613L65.9696 150.487L91.4884 186.389L91.4753 186.515L86.849 230.037L145.052 207.049L151.625 265.21L209.83 242.218Z" fill="white"/>
<path d="M191.831 275.067L191.552 274.821L140.002 229.583L88.7119 273.495L128.794 216.709L70.5631 182.436L70.9475 182.133L119.31 144.075L61.0752 109.796L104.613 88.3507L121.326 46.5148L168.275 92.6232L202.843 43.4258L249.79 89.5282L305.737 45.3185L265.868 101.802L324.099 136.074L275.352 174.435L333.587 208.714L290.049 230.16L273.335 271.996L226.386 225.887L191.831 275.067ZM140.008 228.698L140.225 228.889L191.712 274.073L226.293 224.858L273.087 270.815L289.523 229.673L289.638 229.617L332.18 208.662L274.169 174.515L274.554 174.212L322.917 136.154L264.903 102.009L302.526 48.7079L249.742 90.4183L202.937 44.4552L168.369 93.6528L121.574 47.6956L105.139 88.8373L105.024 88.8939L62.4819 109.848L120.493 143.995L120.108 144.298L71.7453 182.356L129.759 216.501L92.3503 269.5L140.008 228.698Z" fill="white"/>
<path d="M239.113 297.828L191.897 274.72L143.194 284.918L155.239 220.665L88.4548 220.568L88.5013 220.194L96.821 152.709L24.1104 136.034L101.397 136.295L95.4806 69.6159L161.463 87.3671L155.55 20.6836L202.767 43.7919L251.469 33.5946L239.425 97.8473L306.233 97.9441L294.193 162.195L370.135 182.476L293.267 182.217L299.182 248.896L233.201 231.145L239.113 297.828ZM191.984 274.018L192.087 274.069L238.343 296.707L232.45 230.251L298.432 248.002L292.536 181.546L364.975 181.79L293.422 162.681L293.479 162.377L305.428 98.6115L238.619 98.5148L250.628 34.4538L202.679 44.4935L202.576 44.443L156.321 21.8054L162.213 88.2613L96.2311 70.5101L102.127 136.966L30.1057 136.723L97.5583 152.191L97.5216 152.491L89.211 219.901L156.044 219.997L144.036 284.058L191.984 274.018Z" fill="white"/>
<path d="M286.222 312.425L237.583 250.08L180.675 292.737L154.781 229.142L97.8643 271.801L88.8144 220.434L48.4727 186.707L48.9893 186.498L114.635 159.984L72.1623 105.765L139.264 74.0106L108.192 5.76953L157.079 68.4315L213.987 25.7751L239.881 89.3702L296.797 46.7115L305.847 98.0781L346.189 131.804L280.026 158.528L322.515 212.767L256.356 239.493L286.222 312.425V312.425ZM237.706 249.152L283.764 308.188L255.483 239.125L255.794 238.999L321.441 212.48L278.952 158.241L279.363 158.074L344.904 131.602L305.231 98.4342L305.21 98.3141L296.327 47.8992L239.588 90.4246L239.425 90.0234L213.694 26.8301L156.955 69.3598L111.145 10.6419L140.145 74.3333L73.2046 106.012L115.71 160.271L115.298 160.438L49.7571 186.91L89.4305 220.078L89.4519 220.198L98.3341 270.613L155.074 228.087L155.237 228.488L180.968 291.682L237.706 249.152Z" fill="white"/>
<path d="M114.667 318.163L140.35 243.489L65.2507 221.556L106.63 164.44L31.5234 142.502L72.529 105.972L77.5115 54.1422L77.9622 54.4027L143.993 92.6224L166.274 27.3804L166.617 27.5548L237.932 63.765L280.115 0L254.312 75.0203L329.412 96.9525L288.033 154.069L363.139 176.007L322.134 212.537L317.151 264.367L316.7 264.106L250.67 225.886L228.382 291.149L228.029 290.946L161.903 252.675L114.667 318.163ZM66.3484 221.181L141.211 243.043L116.77 314.104L161.715 251.793L228.012 290.163L250.3 224.9L250.652 225.104L316.585 263.267L321.493 212.212L321.591 212.125L361.793 176.31L286.935 154.445L328.314 97.3282L253.452 75.4655L277.774 4.75072L238.161 64.631L166.658 28.3252L144.363 93.6089L144.011 93.4051L78.0776 55.2421L73.1697 106.297L73.0715 106.384L32.8692 142.198L107.728 164.064L66.3484 221.181V221.181Z" fill="white"/>
<path d="M178.057 316.103L178.011 315.617L170.714 240.346L97.109 259.332L89.7612 183.577L0 182.457L84.3807 160.869L56.4832 87.5099L56.9758 87.5171L134.84 88.6344L106.945 15.2701L166.3 27.7766L216.605 2.40625L216.652 2.89247L223.948 78.1638L297.53 59.1835L297.589 59.5463L310.081 137.953L395.056 135.952L310.282 157.641L338.179 230.999L337.686 230.992L259.822 229.875L287.717 303.239L228.362 290.733L178.057 316.103ZM171.304 239.503L178.629 315.066L228.271 290.03L228.385 290.054L286.657 302.333L258.847 229.192L259.339 229.2L337.204 230.317L309.39 157.179L389.205 136.759L309.513 138.635L309.466 138.347L296.986 60.0145L223.359 79.0066L216.033 3.44317L166.392 28.4791L166.277 28.455L108.006 16.1769L135.816 89.3171L135.323 89.3098L57.4583 88.1928L85.2721 161.331L5.0643 181.851L90.3691 182.916L90.3977 183.215L97.6988 258.489L171.304 239.503Z" fill="white"/>
<path d="M123.893 314.281L97.4795 259.103L42.3057 232.701L42.7405 232.369L106.581 183.719L42.3916 134.805L106.663 85.821L50.55 12.4782L123.889 68.5883L172.867 4.31635L221.782 68.506L270.768 4.23047L297.182 59.4079L352.356 85.8108L351.921 86.1425L288.081 134.792L352.249 183.691L351.937 183.96L288.55 238.606L344.442 306.286L270.773 249.923L221.794 314.195L172.88 250.006L123.893 314.281V314.281ZM172.88 248.903L221.794 313.092L270.648 248.985L270.913 249.189L340.198 302.197L287.617 238.527L351.188 183.723L286.978 134.792L351.081 85.9419L296.68 59.9093L270.638 5.50546L221.782 69.6091L172.867 5.41957L124.014 69.5267L123.748 69.3231L54.1339 16.0622L107.601 85.9469L43.4947 134.805L107.684 183.719L43.5806 232.57L97.9811 258.602L124.024 313.006L172.88 248.903V248.903Z" fill="white"/>
</g>
<defs>
<clipPath id="clip0_1589_2577">
<rect width="395.056" height="318.163" fill="white"/>
</clipPath>
</defs>
</svg>