<svg xmlns:xlink="http://www.w3.org/1999/xlink" xmlns="http://www.w3.org/2000/svg" width="370" height="370" viewBox="0 0 370 370" fill="none">
<g opacity="0.2" clip-path="url(#clip0_1589_2724)">
<path d="M323.491 280.445C313.804 286.718 303.266 291.69 292.245 295.17C281.225 298.655 269.729 300.641 258.164 301.103C235.02 302.012 211.673 296.497 191.298 285.425C170.896 274.363 153.672 257.615 141.789 237.688C129.809 217.778 123.616 194.548 123.532 171.339C123.612 148.131 129.809 124.901 141.788 104.99C153.672 85.0644 170.894 68.3132 191.296 57.2517C211.672 46.1788 235.02 40.6654 258.164 41.5731C269.729 42.0353 281.226 44.0216 292.245 47.5078C303.266 50.988 313.804 55.9605 323.491 62.2338C313.734 56.0702 303.155 51.2262 292.13 47.8809C281.105 44.5294 269.639 42.6838 258.138 42.3539C235.125 41.6127 212 47.2301 191.887 58.3282C171.781 69.4484 154.735 85.98 143.037 105.731C131.231 125.446 125.167 148.411 125.127 171.339C125.163 194.268 131.231 217.234 143.036 236.948C154.735 256.698 171.779 273.233 191.886 284.353C211.999 295.451 235.124 301.067 258.138 300.327C269.639 299.997 281.105 298.151 292.13 294.799C303.156 291.453 313.734 286.609 323.491 280.445Z" fill="white"/>
<path d="M293.993 313.096C283.012 316.648 271.546 318.723 260 319.232C248.454 319.747 236.835 318.69 225.545 316.143C202.954 311.031 181.83 299.661 165.015 283.692C148.172 267.727 135.869 247.092 129.548 224.768C123.13 202.436 123.16 178.394 129.086 155.955C135.17 133.558 147.168 112.723 163.892 96.591C180.528 80.4207 201.499 68.6975 224.069 63.2936C246.616 57.8717 270.596 58.5889 292.716 65.4559C303.768 68.8956 314.358 73.7897 324.1 80.0091C333.845 86.2232 342.737 93.7538 350.47 102.32C342.64 93.8415 333.676 86.4246 323.892 80.3396C314.11 74.249 303.513 69.4986 292.489 66.2033C270.451 59.531 246.661 58.972 224.361 64.4863C202.062 70.0238 181.318 81.5803 164.907 97.6308C148.401 113.618 136.599 134.231 130.626 156.368C124.727 178.524 124.644 202.278 130.944 224.376C137.133 246.481 149.316 266.864 165.86 282.809C182.416 298.735 203.3 310.144 225.721 315.386C236.915 318.044 248.468 319.228 259.985 318.844C271.501 318.466 282.973 316.525 293.993 313.096Z" fill="white"/>
<path d="M257.049 336.999C245.524 337.588 233.911 336.625 222.627 334.128C211.341 331.637 200.392 327.609 190.145 322.226C169.647 311.442 152.186 294.992 140.077 275.215C127.939 255.434 121.396 232.318 121.069 209.12C120.65 185.887 126.901 162.672 138.432 142.532C150.106 122.473 167.088 105.453 187.417 94.1988C207.672 82.8853 230.962 76.9891 254.162 77.611C277.344 78.2095 300.321 85.1085 319.91 97.4668C329.695 103.65 338.658 111.118 346.458 119.647C354.262 128.171 360.902 137.747 366.155 148.023C360.787 137.807 354.047 128.322 346.171 119.912C338.299 111.497 329.292 104.166 319.498 98.13C299.938 85.9813 277.102 79.2838 254.135 78.8387C231.163 78.416 208.135 84.2098 188.128 95.4658C168.047 106.636 151.312 123.493 139.813 143.329C128.381 163.204 122.152 186.127 122.519 209.102C122.776 232.056 129.268 254.898 141.122 274.581C152.991 294.249 170.21 310.675 190.511 321.542C200.636 327.006 211.489 331.14 222.713 333.75C233.934 336.365 245.517 337.459 257.049 336.999Z" fill="white"/>
<path d="M215.177 350.524C203.892 348.11 192.924 344.174 182.671 338.842C172.414 333.515 162.881 326.79 154.376 318.939C137.368 303.216 124.759 282.807 118.181 260.571C111.577 238.323 111.24 214.301 116.928 191.808C122.536 169.258 134.583 148.452 150.934 131.983C167.402 115.628 188.21 103.584 210.759 97.9748C233.252 92.2891 257.274 92.6217 279.523 99.227C301.76 105.805 322.168 118.416 337.892 135.423C345.743 143.928 352.468 153.462 357.795 163.719C363.126 173.972 367.062 184.94 369.476 196.226C366.935 184.968 362.88 174.063 357.449 163.901C352.023 153.735 345.221 144.323 337.322 135.957C321.572 119.16 301.249 106.78 279.18 100.406C257.099 94.052 233.356 93.6883 211.118 99.3827C188.83 104.975 168.303 116.926 152.062 133.11C135.875 149.349 123.926 169.878 118.333 192.166C112.641 214.404 113 238.148 119.355 260.229C125.729 282.299 138.111 302.621 154.907 318.372C163.273 326.271 172.686 333.073 182.852 338.498C193.014 343.929 203.919 347.984 215.177 350.524Z" fill="white"/>
<path d="M171.231 352.756C160.955 347.503 151.38 340.862 142.856 333.058C134.327 325.258 126.859 316.295 120.677 306.51C108.317 286.921 101.42 263.944 100.822 240.763C100.201 217.563 106.093 194.273 117.408 174.019C128.662 153.689 145.683 136.71 165.74 125.033C185.879 113.498 209.095 107.25 232.328 107.668C255.526 107.998 278.644 114.537 298.425 126.675C318.202 138.785 334.65 156.247 345.437 176.745C350.819 186.992 354.847 197.941 357.338 209.227C359.834 220.512 360.797 232.124 360.208 243.65C360.667 232.118 359.572 220.535 356.957 209.314C354.347 198.09 350.212 187.238 344.747 177.113C333.882 156.812 317.455 139.594 297.788 127.725C278.104 115.873 255.264 109.376 232.31 109.121C209.334 108.754 186.414 114.985 166.537 126.414C146.699 137.91 129.843 154.648 118.673 174.728C107.419 194.735 101.62 217.763 102.044 240.736C102.489 263.704 109.189 286.539 121.336 306.1C127.372 315.895 134.704 324.901 143.119 332.773C151.53 340.649 161.014 347.388 171.231 352.756Z" fill="white"/>
<path d="M128.205 343.535C119.639 335.802 112.108 326.909 105.895 317.165C99.6757 307.423 94.7822 296.832 91.3428 285.781C84.4743 263.661 83.7592 239.682 89.1809 217.135C94.5856 194.566 106.305 173.593 122.477 156.958C138.609 140.234 159.444 128.239 181.84 122.151C204.278 116.222 228.321 116.195 250.653 122.612C272.976 128.934 293.613 141.234 309.579 158.078C325.548 174.894 336.916 196.019 342.03 218.61C344.576 229.9 345.633 241.519 345.118 253.065C344.609 264.611 342.533 276.078 338.981 287.058C342.409 276.038 344.35 264.566 344.728 253.05C345.111 241.534 343.927 229.981 341.269 218.787C336.028 196.365 324.617 175.483 308.692 158.928C292.747 142.385 272.366 130.198 250.26 124.011C228.162 117.71 204.41 117.796 182.252 123.691C160.115 129.661 139.502 141.465 123.514 157.971C107.466 174.384 95.9049 195.126 90.3683 217.426C84.8537 239.726 85.4149 263.517 92.0856 285.555C95.3813 296.579 100.132 307.176 106.223 316.958C112.309 326.742 119.726 335.706 128.205 343.535Z" fill="white"/>
<path d="M89.0314 323.49C82.7586 313.803 77.7863 303.265 74.3067 292.244C70.8208 281.224 68.835 269.728 68.3732 258.163C67.4638 235.019 72.9793 211.672 84.0517 191.297C95.1137 170.895 111.861 153.671 131.788 141.788C151.699 129.809 174.929 123.615 198.137 123.531C221.346 123.611 244.576 129.808 264.487 141.787C284.412 153.671 301.163 170.893 312.225 191.296C323.298 211.671 328.811 235.019 327.903 258.163C327.441 269.728 325.455 281.225 321.969 292.244C318.488 303.265 313.516 313.803 307.243 323.49C313.406 313.733 318.25 303.154 321.596 292.129C324.947 281.104 326.793 269.638 327.122 258.137C327.864 235.124 322.246 211.999 311.148 191.886C300.028 171.78 283.496 154.734 263.745 143.036C244.031 131.23 221.065 125.166 198.137 125.126C175.208 125.162 152.243 131.23 132.528 143.035C112.778 154.735 96.2431 171.778 85.1234 191.885C74.025 211.998 68.4096 235.123 69.1491 258.137C69.4793 269.638 71.3254 281.104 74.6774 292.129C78.0231 303.155 82.8674 313.733 89.0314 323.49Z" fill="white"/>
<path d="M56.3809 293.994C52.8291 283.013 50.7537 271.547 50.2451 260.001C49.73 248.455 50.7874 236.836 53.3345 225.546C58.4463 202.955 69.8165 181.831 85.7851 165.016C101.75 148.173 122.385 135.87 144.709 129.549C167.041 123.131 191.083 123.161 213.522 129.087C235.919 135.171 256.754 147.169 272.886 163.893C289.056 180.529 300.78 201.5 306.184 224.07C311.605 246.618 310.888 270.596 304.021 292.717C300.581 303.769 295.687 314.359 289.468 324.101C283.254 333.846 275.723 342.738 267.157 350.471C275.636 342.641 283.052 333.677 289.137 323.893C295.228 314.111 299.978 303.514 303.274 292.49C309.946 270.452 310.505 246.662 304.991 224.362C299.453 202.063 287.897 181.319 271.846 164.908C255.859 148.402 235.246 136.6 213.109 130.627C190.953 124.728 167.199 124.645 145.101 130.945C122.996 137.134 102.613 149.317 86.668 165.861C70.7421 182.417 59.3328 203.301 54.0906 225.722C51.4329 236.916 50.2486 248.469 50.6329 259.986C51.011 271.502 52.9523 282.974 56.3809 293.994Z" fill="white"/>
<path d="M32.4772 257.047C31.8884 245.522 32.8515 233.909 35.3484 222.625C37.8393 211.339 41.8677 200.39 47.2502 190.143C58.0348 169.645 74.4849 152.184 94.2615 140.075C114.042 127.937 137.158 121.394 160.357 121.067C183.59 120.648 206.804 126.899 226.945 138.431C247.004 150.104 264.024 167.086 275.278 187.415C286.591 207.67 292.488 230.96 291.866 254.16C291.267 277.342 284.368 300.319 272.01 319.908C265.827 329.693 258.359 338.656 249.83 346.456C241.305 354.26 231.73 360.9 221.454 366.153C231.67 360.785 241.154 354.045 249.565 346.169C257.979 338.297 265.311 329.291 271.347 319.496C283.495 299.936 290.193 277.1 290.638 254.133C291.061 231.161 285.267 208.133 274.011 188.126C262.841 168.045 245.984 151.31 226.148 139.812C206.273 128.379 183.35 122.15 160.374 122.517C137.421 122.774 114.579 129.266 94.8954 141.12C75.2273 152.989 58.8017 170.208 47.9351 190.509C42.4706 200.634 38.3365 211.487 35.7269 222.711C33.1116 233.932 32.0176 245.516 32.4772 257.047Z" fill="white"/>
<path d="M18.9492 215.177C21.3636 203.892 25.2995 192.924 30.6318 182.671C35.9589 172.414 42.6839 162.881 50.535 154.377C66.2574 137.368 86.6663 124.759 108.903 118.181C131.151 111.577 155.173 111.24 177.666 116.928C200.216 122.536 221.021 134.583 237.491 150.934C253.845 167.402 265.89 188.21 271.499 210.759C277.185 233.252 276.852 257.274 270.247 279.523C263.668 301.761 251.058 322.168 234.05 337.892C225.546 345.743 216.012 352.468 205.755 357.795C195.501 363.127 184.533 367.062 173.248 369.476C184.506 366.935 195.411 362.88 205.573 357.449C215.739 352.023 225.151 345.221 233.517 337.322C250.314 321.573 262.693 301.249 269.068 279.18C275.422 257.099 275.785 233.356 270.091 211.118C264.499 188.83 252.548 168.303 236.363 152.062C220.125 135.875 199.595 123.926 177.308 118.333C155.069 112.641 131.326 113 109.245 119.355C87.1749 125.729 66.8523 138.111 51.1018 154.907C43.203 163.273 36.4008 172.686 30.9753 182.852C25.5447 193.014 21.49 203.92 18.9492 215.177Z" fill="white"/>
<path d="M16.7207 171.231C21.9737 160.955 28.6141 151.38 36.4185 142.856C44.2187 134.327 53.182 126.859 62.9666 120.677C82.5554 108.317 105.532 101.42 128.714 100.822C151.913 100.201 175.204 106.093 195.458 117.408C215.788 128.662 232.767 145.683 244.443 165.74C255.978 185.879 262.227 209.095 261.808 232.328C261.479 255.526 254.94 278.644 242.801 298.425C230.692 318.202 213.229 334.651 192.731 345.437C182.485 350.819 171.535 354.847 160.249 357.338C148.965 359.834 137.352 360.797 125.826 360.208C137.358 360.667 148.942 359.572 160.163 356.957C171.386 354.347 182.239 350.212 192.364 344.748C212.665 333.883 229.882 317.455 241.751 297.788C253.604 278.104 260.1 255.265 260.356 232.31C260.722 209.334 254.492 186.414 243.062 166.537C231.566 146.699 214.829 129.843 194.748 118.673C174.741 107.419 151.714 101.62 128.74 102.044C105.773 102.489 82.9379 109.189 63.3768 121.336C53.5819 127.373 44.5752 134.704 36.7035 143.119C28.8278 151.53 22.0887 161.014 16.7207 171.231Z" fill="white"/>
<path d="M25.9414 128.205C33.6752 119.639 42.5675 112.108 52.3121 105.895C62.054 99.6757 72.6446 94.7821 83.6959 91.3428C105.816 84.4743 129.795 83.7592 152.342 89.1808C174.911 94.5856 195.884 106.304 212.519 122.477C229.243 138.608 241.238 159.444 247.326 181.84C253.255 204.278 253.282 228.321 246.865 250.653C240.543 272.976 228.243 293.613 211.399 309.579C194.583 325.548 173.458 336.916 150.867 342.03C139.577 344.576 127.958 345.633 116.411 345.118C104.865 344.609 93.3993 342.533 82.4186 338.981C93.4388 342.409 104.911 344.35 116.427 344.728C127.943 345.111 139.496 343.927 150.69 341.269C173.112 336.028 193.994 324.617 210.549 308.692C227.092 292.747 239.279 272.366 245.466 250.26C251.767 228.162 251.681 204.41 245.785 182.252C239.816 160.114 228.011 139.502 211.506 123.514C195.093 107.466 174.351 95.9049 152.051 90.3682C129.751 84.8536 105.96 85.4148 83.9216 92.0856C72.8981 95.3812 62.3007 100.132 52.5192 106.223C42.7351 112.309 33.7708 119.726 25.9414 128.205Z" fill="white"/>
<path d="M45.9844 89.0325C55.6718 82.7597 66.2101 77.7874 77.2309 74.3077C88.2504 70.8219 99.7467 68.8361 111.312 68.3742C134.456 67.4649 157.803 72.9804 178.178 84.0528C198.58 95.1148 215.804 111.862 227.687 131.789C239.666 151.7 245.86 174.93 245.944 198.138C245.864 221.347 239.667 244.577 227.688 264.488C215.804 284.413 198.582 301.164 178.179 312.226C157.804 323.298 134.456 328.812 111.312 327.904C99.7464 327.442 88.25 325.456 77.2305 321.97C66.2098 318.489 55.6715 313.517 45.9844 307.244C55.7418 313.407 66.3206 318.251 77.3462 321.596C88.371 324.948 99.8368 326.794 111.337 327.123C134.351 327.865 157.476 322.247 177.588 311.149C197.695 300.029 214.741 283.497 226.439 263.746C238.245 244.032 244.309 221.066 244.349 198.138C244.313 175.209 238.245 152.244 226.44 132.529C214.74 112.779 197.697 96.2442 177.59 85.1245C157.477 74.026 134.351 68.4107 111.337 69.1501C99.8365 69.4804 88.3706 71.3265 77.3459 74.6784C66.3202 78.0242 55.7416 82.8685 45.9844 89.0325Z" fill="white"/>
<path d="M75.4821 56.3799C86.4628 52.8281 97.929 50.7528 109.475 50.2441C121.021 49.7291 132.64 50.7864 143.93 53.3335C166.521 58.4453 187.645 69.8156 204.46 85.7842C221.303 101.749 233.606 122.384 239.927 144.708C246.345 167.041 246.315 191.082 240.389 213.521C234.305 235.918 222.307 256.753 205.583 272.885C188.947 289.055 167.976 300.779 145.406 306.183C122.858 311.604 98.8796 310.887 76.7587 304.02C65.7072 300.58 55.1166 295.686 45.3749 289.467C35.6304 283.253 26.7383 275.722 19.0049 267.156C26.8345 275.635 35.7991 283.051 45.5833 289.137C55.3649 295.227 65.9624 299.978 76.9858 303.273C99.0236 309.945 122.814 310.504 145.114 304.99C167.413 299.452 188.157 287.896 204.568 271.845C221.074 255.858 232.876 235.245 238.849 213.108C244.748 190.952 244.831 167.198 238.531 145.1C232.342 122.995 220.159 102.612 203.615 86.6671C187.059 70.7411 166.175 59.3319 143.754 54.0897C132.56 51.432 121.007 50.2476 109.49 50.6319C97.9741 51.01 86.5022 52.9513 75.4821 56.3799Z" fill="white"/>
<path d="M112.427 32.4762C123.953 31.8875 135.565 32.8505 146.849 35.3475C158.136 37.8384 169.085 41.8668 179.331 47.2493C199.829 58.0339 217.29 74.484 229.4 94.2605C241.537 114.041 248.08 137.157 248.408 160.356C248.827 183.589 242.576 206.803 231.044 226.944C219.37 247.003 202.389 264.023 182.059 275.277C161.804 286.59 138.514 292.487 115.314 291.865C92.1321 291.266 69.1558 284.367 49.5659 272.009C39.7813 265.826 30.8183 258.358 23.0182 249.829C15.2141 241.304 8.57399 231.729 3.32129 221.453C8.68969 231.669 15.4291 241.154 23.305 249.564C31.177 257.978 40.1839 265.31 49.9788 271.346C69.5387 283.494 92.374 290.192 115.341 290.637C138.313 291.06 161.342 285.266 181.348 274.01C201.429 262.84 218.164 245.983 229.663 226.147C241.096 206.272 247.324 183.349 246.958 160.373C246.7 137.42 240.208 114.578 228.354 94.8945C216.485 75.2264 199.266 58.8008 178.965 47.9341C168.84 42.4697 157.987 38.3355 146.764 35.726C135.542 33.1107 123.959 32.0167 112.427 32.4762Z" fill="white"/>
<path d="M154.299 18.9492C165.584 21.3636 176.552 25.2994 186.805 30.6318C197.062 35.9589 206.595 42.6839 215.1 50.5349C232.108 66.2573 244.717 86.6662 251.295 108.903C257.899 131.151 258.236 155.173 252.548 177.666C246.94 200.216 234.893 221.021 218.542 237.491C202.074 253.845 181.266 265.89 158.717 271.499C136.224 277.185 112.202 276.852 89.953 270.247C67.7155 263.668 47.3078 251.058 31.5839 234.05C23.733 225.546 17.0083 216.012 11.6815 205.755C6.3495 195.501 2.414 184.533 0 173.248C2.5412 184.506 6.5963 195.411 12.0271 205.573C17.453 215.738 24.2555 225.151 32.1544 233.517C47.9035 250.314 68.2272 262.693 90.2965 269.068C112.377 275.422 136.12 275.785 158.358 270.091C180.646 264.499 201.173 252.548 217.414 236.363C233.601 220.125 245.55 199.595 251.143 177.308C256.835 155.069 256.476 131.326 250.121 109.245C243.747 87.1749 231.365 66.8523 214.569 51.1018C206.203 43.2029 196.79 36.4007 186.624 30.9752C176.462 25.5447 165.557 21.49 154.299 18.9492Z" fill="white"/>
<path d="M198.245 16.7188C208.521 21.9718 218.096 28.6121 226.62 36.4166C235.149 44.2168 242.617 53.18 248.799 62.9646C261.159 82.5535 268.056 105.53 268.654 128.712C269.275 151.911 263.383 175.202 252.068 195.456C240.814 215.786 223.793 232.765 203.736 244.441C183.597 255.976 160.381 262.225 137.148 261.807C113.95 261.477 90.8322 254.938 71.0513 242.8C51.2741 230.69 34.8255 213.227 24.0394 192.73C18.6571 182.483 14.6291 171.533 12.1384 160.247C9.64198 148.963 8.67928 137.35 9.26848 125.824C8.80938 137.356 9.90368 148.94 12.5194 160.161C15.1294 171.384 19.2639 182.237 24.7285 192.362C35.5935 212.663 52.0207 229.881 71.6882 241.75C91.3716 253.602 114.211 260.098 137.166 260.354C160.142 260.721 183.062 254.49 202.939 243.06C222.777 231.564 239.633 214.827 250.803 194.746C262.057 174.739 267.856 151.712 267.432 128.738C266.987 105.771 260.287 82.936 248.14 63.375C242.103 53.5801 234.772 44.5733 226.357 36.7015C217.946 28.8259 208.462 22.0868 198.245 16.7188Z" fill="white"/>
<path d="M241.27 25.9414C249.837 33.6751 257.367 42.5675 263.581 52.3121C269.8 62.0539 274.693 72.6446 278.133 83.6959C285.001 105.816 285.716 129.795 280.295 152.342C274.89 174.911 263.171 195.883 246.999 212.519C230.867 229.243 210.032 241.238 187.636 247.326C165.197 253.255 141.155 253.282 118.822 246.865C96.4998 240.543 75.862 228.243 59.8968 211.398C43.9277 194.583 32.5593 173.458 27.4458 150.867C24.899 139.576 23.8421 127.958 24.3575 116.411C24.8667 104.865 26.9423 93.3992 30.4946 82.4186C27.0664 93.4388 25.1255 104.911 24.7478 116.427C24.364 127.943 25.5488 139.496 28.2067 150.69C33.4472 173.111 44.8583 193.994 60.7837 210.549C76.7288 227.092 97.1091 239.279 119.215 245.466C141.313 251.767 165.066 251.681 187.223 245.785C209.361 239.816 229.974 228.011 245.961 211.506C262.01 195.093 273.571 174.351 279.107 152.051C284.622 129.751 284.061 105.96 277.39 83.9216C274.094 72.8981 269.343 62.3007 263.252 52.5192C257.167 42.7351 249.75 33.7708 241.27 25.9414Z" fill="white"/>
<path d="M280.444 45.9844C286.717 55.6717 291.689 66.2101 295.169 77.2308C298.655 88.2503 300.64 99.7467 301.102 111.312C302.012 134.456 296.496 157.803 285.424 178.178C274.362 198.579 257.614 215.804 237.687 227.687C217.777 239.666 194.547 245.86 171.338 245.944C148.13 245.864 124.9 239.667 104.989 227.688C85.0634 215.804 68.3122 198.582 57.2507 178.179C46.1779 157.803 40.6644 134.456 41.5721 111.311C42.0344 99.7464 44.0206 88.25 47.5068 77.2305C50.987 66.2097 55.9596 55.6715 62.2328 45.9844C56.0692 55.7418 51.2253 66.3205 47.8799 77.3462C44.5285 88.3709 42.6828 99.8368 42.3529 111.337C41.6118 134.351 47.2292 157.476 58.3272 177.588C69.4474 197.694 85.9791 214.741 105.73 226.439C125.445 238.245 148.41 244.309 171.338 244.349C194.267 244.312 217.233 238.245 236.947 226.44C256.697 214.74 273.232 197.697 284.352 177.59C295.45 157.477 301.066 134.351 300.326 111.337C299.996 99.8365 298.15 88.3706 294.798 77.3459C291.452 66.3202 286.608 55.7416 280.444 45.9844Z" fill="white"/>
<path d="M313.095 75.4811C316.647 86.4619 318.722 97.9281 319.231 109.474C319.746 121.02 318.689 132.639 316.142 143.929C311.03 166.52 299.66 187.644 283.691 204.459C267.726 221.302 247.091 233.606 224.768 239.926C202.435 246.344 178.393 246.314 155.954 240.388C133.557 234.304 112.722 222.306 96.5901 205.582C80.4197 188.946 68.6966 167.975 63.2926 145.405C57.8707 122.858 58.5879 98.8787 65.4549 76.7577C68.8947 65.7063 73.7888 55.1157 80.0082 45.374C86.2222 35.6295 93.7528 26.7373 102.319 19.0039C93.8405 26.8336 86.4237 35.7982 80.3386 45.5823C74.248 55.364 69.4977 65.9614 66.2024 76.9848C59.5301 99.0226 58.971 122.813 64.4854 145.113C70.0228 167.412 81.5793 188.156 97.6299 204.568C113.617 221.073 134.23 232.875 156.367 238.848C178.524 244.747 202.277 244.831 224.375 238.53C246.48 232.341 266.863 220.158 282.808 203.614C298.734 187.058 310.143 166.174 315.385 143.753C318.043 132.559 319.228 121.006 318.843 109.489C318.465 97.9731 316.524 86.5012 313.095 75.4811Z" fill="white"/>
<path d="M336.999 112.426C337.587 123.952 336.624 135.564 334.127 146.848C331.636 158.135 327.608 169.084 322.225 179.33C311.441 199.828 294.991 217.29 275.214 229.399C255.434 241.536 232.317 248.079 209.119 248.407C185.886 248.826 162.671 242.575 142.531 231.043C122.472 219.369 105.452 202.388 94.1978 182.058C82.8843 161.803 76.9882 138.513 77.61 115.313C78.2085 92.131 85.1075 69.1548 97.4658 49.5649C103.649 39.7803 111.117 30.8172 119.646 23.0172C128.17 15.213 137.746 8.57291 148.022 3.32031C137.806 8.68861 128.321 15.4281 119.911 23.304C111.496 31.1759 104.165 40.1828 98.1291 49.9777C85.9803 69.5377 79.2828 92.3729 78.8377 115.34C78.415 138.312 84.2088 161.341 95.4649 181.347C106.635 201.428 123.492 218.163 143.328 229.662C163.203 241.095 186.126 247.323 209.101 246.957C232.055 246.699 254.897 240.207 274.58 228.354C294.248 216.484 310.674 199.265 321.541 178.964C327.005 168.839 331.139 157.986 333.749 146.763C336.364 135.541 337.458 123.958 336.999 112.426Z" fill="white"/>
<path d="M350.526 154.299C348.112 165.584 344.176 176.552 338.844 186.805C333.517 197.062 326.792 206.595 318.941 215.1C303.218 232.108 282.809 244.717 260.573 251.295C238.324 257.899 214.303 258.236 191.81 252.548C169.26 246.94 148.454 234.893 131.985 218.542C115.63 202.074 103.586 181.266 97.9767 158.717C92.2911 136.224 92.6237 112.202 99.229 89.953C105.807 67.7155 118.418 47.3077 135.425 31.5839C143.93 23.733 153.464 17.0083 163.721 11.6814C173.974 6.3495 184.942 2.4139 196.228 0C184.97 2.5412 174.065 6.5963 163.903 12.0271C153.737 17.4529 144.325 24.2554 135.959 32.1543C119.162 47.9035 106.782 68.2272 100.408 90.2964C94.054 112.377 93.6902 136.12 99.3846 158.358C104.977 180.646 116.928 201.173 133.112 217.414C149.351 233.601 169.88 245.55 192.168 251.143C214.406 256.835 238.15 256.476 260.231 250.121C282.301 243.747 302.623 231.365 318.374 214.569C326.273 206.203 333.075 196.79 338.5 186.624C343.931 176.462 347.986 165.557 350.526 154.299Z" fill="white"/>
<path d="M352.755 198.246C347.502 208.522 340.862 218.097 333.057 226.621C325.257 235.15 316.294 242.618 306.509 248.8C286.92 261.16 263.943 268.057 240.762 268.655C217.562 269.276 194.272 263.384 174.018 252.069C153.688 240.815 136.709 223.794 125.032 203.737C113.497 183.598 107.249 160.382 107.667 137.149C107.997 113.951 114.536 90.8333 126.674 71.0523C138.784 51.275 156.247 34.8265 176.744 24.0404C186.991 18.6582 197.94 14.6301 209.226 12.1395C220.511 9.64305 232.123 8.68025 243.649 9.26945C232.117 8.81035 220.534 9.90475 209.313 12.5205C198.089 15.1304 187.237 19.2649 177.112 24.7296C156.811 35.5946 139.593 52.0218 127.724 71.6892C115.872 91.3726 109.375 114.213 109.12 137.167C108.753 160.143 114.984 183.064 126.413 202.94C137.909 222.778 154.647 239.634 174.727 250.804C194.735 262.058 217.762 267.857 240.735 267.433C263.703 266.988 286.538 260.288 306.099 248.141C315.894 242.105 324.9 234.773 332.772 226.358C340.648 217.947 347.387 208.463 352.755 198.246Z" fill="white"/>
<path d="M343.534 241.27C335.801 249.837 326.908 257.367 317.164 263.581C307.422 269.8 296.831 274.693 285.78 278.133C263.66 285.001 239.681 285.716 217.134 280.295C194.565 274.89 173.592 263.171 156.957 246.999C140.233 230.867 128.238 210.032 122.15 187.636C116.221 165.197 116.194 141.155 122.611 118.822C128.933 96.4998 141.233 75.8621 158.077 59.8969C174.893 43.9277 196.018 32.5594 218.609 27.4459C229.899 24.8991 241.518 23.8422 253.064 24.3575C264.61 24.8668 276.077 26.9424 287.057 30.4947C276.037 27.0665 264.565 25.1256 253.049 24.7479C241.533 24.364 229.98 25.5489 218.786 28.2068C196.364 33.4473 175.482 44.8584 158.927 60.7838C142.384 76.7289 130.197 97.1092 124.01 119.215C117.709 141.313 117.795 165.066 123.69 187.223C129.66 209.361 141.465 229.974 157.97 245.961C174.383 262.01 195.125 273.571 217.425 279.107C239.725 284.622 263.516 284.061 285.554 277.39C296.578 274.094 307.175 269.343 316.957 263.252C326.741 257.167 335.705 249.75 343.534 241.27Z" fill="white"/>
<path d="M323.491 280.445C313.804 286.718 303.266 291.69 292.245 295.17C281.225 298.655 269.729 300.641 258.164 301.103C235.02 302.012 211.673 296.497 191.298 285.425C170.896 274.363 153.672 257.615 141.789 237.688C129.809 217.778 123.616 194.548 123.532 171.339C123.612 148.131 129.809 124.901 141.788 104.99C153.672 85.0644 170.894 68.3132 191.296 57.2517C211.672 46.1788 235.02 40.6654 258.164 41.5731C269.729 42.0353 281.226 44.0216 292.245 47.5078C303.266 50.988 313.804 55.9605 323.491 62.2338C313.734 56.0702 303.155 51.2262 292.13 47.8809C281.105 44.5294 269.639 42.6838 258.138 42.3539C235.125 41.6127 212 47.2301 191.887 58.3282C171.781 69.4484 154.735 85.98 143.037 105.731C131.231 125.446 125.167 148.411 125.127 171.339C125.163 194.268 131.231 217.234 143.036 236.948C154.735 256.698 171.779 273.233 191.886 284.353C211.999 295.451 235.124 301.067 258.138 300.327C269.639 299.997 281.105 298.151 292.13 294.799C303.156 291.453 313.734 286.609 323.491 280.445Z" fill="white"/>
<path d="M293.993 313.096C283.012 316.648 271.546 318.723 260 319.232C248.454 319.747 236.835 318.69 225.545 316.143C202.954 311.031 181.83 299.661 165.015 283.692C148.172 267.727 135.869 247.092 129.548 224.768C123.13 202.436 123.16 178.394 129.086 155.955C135.17 133.558 147.168 112.723 163.892 96.591C180.528 80.4207 201.499 68.6975 224.069 63.2936C246.616 57.8717 270.596 58.5889 292.716 65.4559C303.768 68.8956 314.358 73.7897 324.1 80.0091C333.845 86.2232 342.737 93.7538 350.47 102.32C342.64 93.8415 333.676 86.4246 323.892 80.3396C314.11 74.249 303.513 69.4986 292.489 66.2033C270.451 59.531 246.661 58.972 224.361 64.4863C202.062 70.0238 181.318 81.5803 164.907 97.6308C148.401 113.618 136.599 134.231 130.626 156.368C124.727 178.524 124.644 202.278 130.944 224.376C137.133 246.481 149.316 266.864 165.86 282.809C182.416 298.735 203.3 310.144 225.721 315.386C236.915 318.044 248.468 319.228 259.985 318.844C271.501 318.466 282.973 316.525 293.993 313.096Z" fill="white"/>
<path d="M257.049 336.999C245.524 337.588 233.911 336.625 222.627 334.128C211.341 331.637 200.392 327.609 190.145 322.226C169.647 311.442 152.186 294.992 140.077 275.215C127.939 255.434 121.396 232.318 121.069 209.12C120.65 185.887 126.901 162.672 138.432 142.532C150.106 122.473 167.088 105.453 187.417 94.1988C207.672 82.8853 230.962 76.9891 254.162 77.611C277.344 78.2095 300.321 85.1085 319.91 97.4668C329.695 103.65 338.658 111.118 346.458 119.647C354.262 128.171 360.902 137.747 366.155 148.023C360.787 137.807 354.047 128.322 346.171 119.912C338.299 111.497 329.292 104.166 319.498 98.13C299.938 85.9813 277.102 79.2838 254.135 78.8387C231.163 78.416 208.135 84.2098 188.128 95.4658C168.047 106.636 151.312 123.493 139.813 143.329C128.381 163.204 122.152 186.127 122.519 209.102C122.776 232.056 129.268 254.898 141.122 274.581C152.991 294.249 170.21 310.675 190.511 321.542C200.636 327.006 211.489 331.14 222.713 333.75C233.934 336.365 245.517 337.459 257.049 336.999Z" fill="white"/>
<path d="M215.177 350.524C203.892 348.11 192.924 344.174 182.671 338.842C172.414 333.515 162.881 326.79 154.376 318.939C137.368 303.216 124.759 282.807 118.181 260.571C111.577 238.323 111.24 214.301 116.928 191.808C122.536 169.258 134.583 148.452 150.934 131.983C167.402 115.628 188.21 103.584 210.759 97.9748C233.252 92.2891 257.274 92.6217 279.523 99.227C301.76 105.805 322.168 118.416 337.892 135.423C345.743 143.928 352.468 153.462 357.795 163.719C363.126 173.972 367.062 184.94 369.476 196.226C366.935 184.968 362.88 174.063 357.449 163.901C352.023 153.735 345.221 144.323 337.322 135.957C321.572 119.16 301.249 106.78 279.18 100.406C257.099 94.052 233.356 93.6883 211.118 99.3827C188.83 104.975 168.303 116.926 152.062 133.11C135.875 149.349 123.926 169.878 118.333 192.166C112.641 214.404 113 238.148 119.355 260.229C125.729 282.299 138.111 302.621 154.907 318.372C163.273 326.271 172.686 333.073 182.852 338.498C193.014 343.929 203.919 347.984 215.177 350.524Z" fill="white"/>
<path d="M171.231 352.756C160.955 347.503 151.38 340.862 142.856 333.058C134.327 325.258 126.859 316.295 120.677 306.51C108.317 286.921 101.42 263.944 100.822 240.763C100.201 217.563 106.093 194.273 117.408 174.019C128.662 153.689 145.683 136.71 165.74 125.033C185.879 113.498 209.095 107.25 232.328 107.668C255.526 107.998 278.644 114.537 298.425 126.675C318.202 138.785 334.65 156.247 345.437 176.745C350.819 186.992 354.847 197.941 357.338 209.227C359.834 220.512 360.797 232.124 360.208 243.65C360.667 232.118 359.572 220.535 356.957 209.314C354.347 198.09 350.212 187.238 344.747 177.113C333.882 156.812 317.455 139.594 297.788 127.725C278.104 115.873 255.264 109.376 232.31 109.121C209.334 108.754 186.414 114.985 166.537 126.414C146.699 137.91 129.843 154.648 118.673 174.728C107.419 194.735 101.62 217.763 102.044 240.736C102.489 263.704 109.189 286.539 121.336 306.1C127.372 315.895 134.704 324.901 143.119 332.773C151.53 340.649 161.014 347.388 171.231 352.756Z" fill="white"/>
<path d="M128.205 343.535C119.639 335.802 112.108 326.909 105.895 317.165C99.6757 307.423 94.7822 296.832 91.3428 285.781C84.4743 263.661 83.7592 239.682 89.1809 217.135C94.5856 194.566 106.305 173.593 122.477 156.958C138.609 140.234 159.444 128.239 181.84 122.151C204.278 116.222 228.321 116.195 250.653 122.612C272.976 128.934 293.613 141.234 309.579 158.078C325.548 174.894 336.916 196.019 342.03 218.61C344.576 229.9 345.633 241.519 345.118 253.065C344.609 264.611 342.533 276.078 338.981 287.058C342.409 276.038 344.35 264.566 344.728 253.05C345.111 241.534 343.927 229.981 341.269 218.787C336.028 196.365 324.617 175.483 308.692 158.928C292.747 142.385 272.366 130.198 250.26 124.011C228.162 117.71 204.41 117.796 182.252 123.691C160.115 129.661 139.502 141.465 123.514 157.971C107.466 174.384 95.9049 195.126 90.3683 217.426C84.8537 239.726 85.4149 263.517 92.0856 285.555C95.3813 296.579 100.132 307.176 106.223 316.958C112.309 326.742 119.726 335.706 128.205 343.535Z" fill="white"/>
<path d="M89.0314 323.49C82.7586 313.803 77.7863 303.265 74.3067 292.244C70.8208 281.224 68.835 269.728 68.3732 258.163C67.4638 235.019 72.9793 211.672 84.0517 191.297C95.1137 170.895 111.861 153.671 131.788 141.788C151.699 129.809 174.929 123.615 198.137 123.531C221.346 123.611 244.576 129.808 264.487 141.787C284.412 153.671 301.163 170.893 312.225 191.296C323.298 211.671 328.811 235.019 327.903 258.163C327.441 269.728 325.455 281.225 321.969 292.244C318.488 303.265 313.516 313.803 307.243 323.49C313.406 313.733 318.25 303.154 321.596 292.129C324.947 281.104 326.793 269.638 327.122 258.137C327.864 235.124 322.246 211.999 311.148 191.886C300.028 171.78 283.496 154.734 263.745 143.036C244.031 131.23 221.065 125.166 198.137 125.126C175.208 125.162 152.243 131.23 132.528 143.035C112.778 154.735 96.2431 171.778 85.1234 191.885C74.025 211.998 68.4096 235.123 69.1491 258.137C69.4793 269.638 71.3254 281.104 74.6774 292.129C78.0231 303.155 82.8674 313.733 89.0314 323.49Z" fill="white"/>
</g>
<defs>
<clipPath id="clip0_1589_2724">
<rect width="369.476" height="369.476" fill="white"/>
</clipPath>
</defs>
</svg>