<svg xmlns:xlink="http://www.w3.org/1999/xlink" xmlns="http://www.w3.org/2000/svg" width="334" height="342" viewBox="0 0 334 342" fill="none">
<g opacity="0.2" clip-path="url(#clip0_1589_2766)">
<path d="M169.25 312.196C144.543 312.196 120.596 305.875 99.2602 293.429C67.4169 274.852 44.7075 244.276 35.315 207.331C30.1692 187.092 29.2026 166.039 32.4423 144.758C35.7954 122.733 43.5024 101.631 55.3488 82.0383C77.5228 45.365 111.569 18.5849 151.217 6.63217C190.878 -5.32567 231.397 -1.01535 265.309 18.7682C297.152 37.3443 319.861 67.921 329.254 104.865C334.4 125.105 335.366 146.158 332.126 167.439C328.773 189.464 321.067 210.565 309.22 230.158C287.046 266.832 253 293.612 213.352 305.565C198.644 309.999 183.813 312.196 169.25 312.196ZM99.7181 292.64C169.282 333.221 262.915 304.981 308.441 229.686C331.53 191.499 338.794 146.086 328.372 105.091C319.04 68.3855 296.481 38.0088 264.851 19.5567C195.284 -21.0263 101.653 7.21613 56.1279 82.5112C33.039 120.698 25.7748 166.112 36.1972 207.106C45.5292 243.812 68.0882 274.188 99.7181 292.64H99.7181Z" fill="white"/>
<path d="M177.99 327.392C149.042 327.392 120.887 318.951 96.4895 302.64C64.2658 281.096 42.4784 248.282 35.1407 210.243C27.7183 171.764 35.9031 132.461 58.187 99.5754C80.4699 66.6911 114.183 44.1583 153.117 36.1273C192.501 28.0038 232.353 35.6721 265.331 57.7209C297.555 79.2647 319.342 112.078 326.679 150.118C334.102 188.596 325.917 227.899 303.633 260.785C281.35 293.669 247.637 316.202 208.703 324.233C198.455 326.347 188.172 327.392 177.99 327.392ZM36.0013 210.076C43.294 247.883 64.9488 280.497 96.9761 301.909C129.757 323.826 169.371 331.45 208.526 323.373C288.433 306.891 341.05 229.243 325.819 150.284C318.527 112.477 296.872 79.8639 264.845 58.4512C232.063 36.5339 192.447 28.9123 153.293 36.9872C73.3876 53.4699 20.7703 131.117 36.0013 210.076Z" fill="white"/>
<path d="M164.909 342C135.13 342.001 106.172 331.765 81.7866 312.333C52.1504 288.718 32.7868 254.341 27.2626 215.535C21.739 176.73 30.715 138.139 52.5377 106.871L52.8835 107.113L52.5377 106.871C74.4541 75.4689 106.66 55.2425 143.223 49.9173C179.494 44.6359 215.726 54.6833 245.251 78.2099C274.887 101.826 294.251 136.202 299.775 175.008C305.299 213.813 296.323 252.404 274.5 283.672C252.584 315.074 220.377 335.301 183.814 340.626C177.501 341.545 171.184 342 164.909 342ZM162.126 49.3882C155.888 49.3882 149.62 49.8397 143.345 50.7537C107.014 56.0448 75.0103 76.1464 53.2292 107.355C8.43163 171.541 21.478 263.198 82.312 311.672C106.544 330.981 135.326 341.154 164.911 341.155C171.149 341.155 177.418 340.704 183.692 339.79C220.024 334.498 252.027 314.397 273.809 283.188C318.606 219.002 305.56 127.346 244.726 78.8712C220.494 59.5625 191.712 49.3882 162.126 49.3882Z" fill="white"/>
<path d="M134.187 335.277C106.681 335.277 80.4171 325.863 58.8936 308.035C45.1305 296.634 33.9996 282.453 25.8116 265.885C17.3374 248.739 12.4666 229.899 11.3334 209.888C9.19094 172.03 20.8005 134.618 44.0236 104.544C67.2533 74.4629 99.3228 55.3221 134.325 50.6477C167.622 46.2009 200.137 55.4888 225.868 76.8029C239.631 88.2034 250.762 102.385 258.95 118.953C267.424 136.099 272.295 154.939 273.427 174.949C275.57 212.808 263.961 250.219 240.738 280.293C217.509 310.375 185.439 329.515 150.437 334.19C144.991 334.917 139.564 335.277 134.187 335.277ZM134.378 51.0507L134.432 51.4536C62.6019 61.0463 7.74338 132.099 12.1439 209.842C14.3486 248.792 31.5766 284.353 59.4106 307.408C84.9657 328.576 117.252 337.802 150.33 333.384C222.16 323.791 277.019 252.738 272.617 174.995C270.413 136.046 253.185 100.485 225.351 77.4297C199.797 56.2616 167.507 47.0378 134.432 51.4536L134.378 51.0507Z" fill="white"/>
<path d="M121.112 307.226C90.0813 307.226 61.1973 296.197 38.8503 275.611C13.9491 252.672 0.152202 220.615 0.00124373 185.346C-0.14922 150.087 13.357 115.838 38.0321 88.906C62.7065 61.9747 95.5989 45.5834 130.649 42.7516C165.714 39.918 198.733 50.9923 223.635 73.9313C248.536 96.8706 262.333 128.928 262.483 164.197C262.633 199.456 249.127 233.705 224.452 260.637C199.777 287.569 166.886 303.96 131.836 306.791C128.239 307.082 124.66 307.226 121.112 307.226H121.112ZM141.37 43.0991C137.843 43.0991 134.288 43.2422 130.711 43.5313C95.8581 46.3473 63.1483 62.6495 38.6067 89.4352C-12.0472 144.721 -11.701 227.982 39.3791 275.035C64.1188 297.826 96.9341 308.827 131.773 306.012C166.626 303.196 199.336 286.894 223.878 260.108C274.531 204.822 274.185 121.562 223.106 74.5072C200.906 54.0567 172.204 43.0991 141.37 43.0991Z" fill="white"/>
<path d="M136.595 281.522C136.143 281.522 135.694 281.52 135.242 281.515C101.45 281.163 69.8071 267.637 46.1429 243.431C22.4786 219.224 9.62585 187.233 9.95135 153.352C10.2769 119.471 23.742 87.7547 47.8671 64.0461C71.9915 40.3373 103.909 27.4973 137.68 27.8265C171.472 28.1789 203.115 41.7042 226.779 65.9111C250.443 90.118 263.296 122.108 262.971 155.99C262.645 189.871 249.18 221.587 225.055 245.296C201.253 268.687 169.884 281.522 136.595 281.522ZM136.329 28.5725C103.235 28.5725 72.0555 41.3294 48.393 64.5834C24.4117 88.1511 11.0262 119.679 10.7024 153.359C10.0345 222.887 65.9061 280.04 135.25 280.762C168.847 281.096 200.548 268.326 224.529 244.758C248.51 221.19 261.896 189.663 262.22 155.983L262.595 155.986L262.22 155.983C262.888 86.4553 207.016 29.3025 137.672 28.5793C137.225 28.5747 136.775 28.5725 136.329 28.5725Z" fill="white"/>
<path d="M153.554 271.946C151.266 271.946 148.974 271.874 146.671 271.731C115.228 269.769 86.4405 254.612 65.6136 229.052C22.9039 176.637 27.5653 96.3341 76.0051 50.0442C99.3319 27.7513 129.279 16.5406 160.327 18.4788C191.771 20.4407 220.558 35.5975 241.385 61.1573C284.095 113.573 279.433 193.876 230.994 240.166C209.397 260.805 182.12 271.946 153.554 271.946ZM153.447 18.9884C125.062 18.9884 97.9675 30.0568 76.504 50.5683C28.3315 96.6033 23.697 176.465 66.1737 228.594C86.8715 253.996 115.476 269.059 146.717 271.008C177.559 272.934 207.315 261.793 230.495 239.642L230.744 239.904L230.495 239.642C278.667 193.607 283.302 113.744 240.825 61.6156C220.127 36.2137 191.523 21.151 160.282 19.2018C157.999 19.0595 155.716 18.9884 153.447 18.9884Z" fill="white"/>
<path d="M161.998 273.044C159.125 273.044 156.245 272.928 153.351 272.689C125.148 270.364 99.8138 256.773 82.0144 234.419C72.311 222.233 65.309 208.135 61.2026 192.514C56.9532 176.35 56.0473 159.398 58.5091 142.131C68.0446 75.2612 126.076 24.9983 187.899 30.0962C216.102 32.4205 241.436 46.0115 259.236 68.365C268.939 80.5512 275.941 94.6499 280.048 110.27C284.297 126.434 285.204 143.386 282.741 160.654C273.654 224.394 220.486 273.044 161.998 273.044ZM153.408 271.994C214.869 277.064 272.57 227.067 282.053 160.555C286.85 126.912 278.335 93.4686 258.692 68.7998C241.013 46.598 215.852 33.0993 187.842 30.7907C126.395 25.724 68.6817 75.7178 59.1983 142.23C54.4011 175.872 62.9152 209.316 82.5583 233.985C100.237 256.187 125.399 269.685 153.408 271.994Z" fill="white"/>
<path d="M170.294 281.073C164.106 281.073 157.932 280.562 151.8 279.542C123.533 274.836 99.0617 259.598 82.8969 236.634C48.0951 187.196 61.9577 116.342 113.798 78.6904C126.977 69.1186 141.518 62.4099 157.019 58.7505C171.994 55.2151 187.139 54.6798 202.035 57.1596C230.303 61.865 254.773 77.1034 270.939 100.068C305.739 149.506 291.877 220.359 240.038 258.011C226.859 267.583 212.317 274.292 196.817 277.951C188.007 280.031 179.136 281.073 170.294 281.073ZM83.4435 236.247C99.5052 259.063 123.82 274.204 151.91 278.88C182.472 283.968 213.63 276.364 239.645 257.468C291.19 220.031 304.983 149.594 270.392 100.454C254.33 77.6379 230.015 62.4971 201.925 57.8212C171.362 52.7331 140.206 60.3384 114.191 79.2336C62.6452 116.671 48.8523 187.107 83.4435 236.247Z" fill="white"/>
<path d="M170.75 294.128C162.756 294.128 154.698 293.214 146.694 291.363C88.7139 277.956 51.6221 219.06 64.0107 160.074C70.0597 131.275 86.8185 106.825 111.201 91.2245C135.204 75.8671 163.774 70.9587 191.646 77.4037C249.627 90.8106 286.718 149.706 274.33 208.692C268.281 237.491 251.522 261.942 227.14 277.543C210.029 288.489 190.594 294.128 170.75 294.128ZM64.3262 160.141L64.6416 160.207C52.3243 218.851 89.1978 277.406 146.839 290.734C174.543 297.14 202.937 292.262 226.793 276.998C251.028 261.492 267.687 237.187 273.699 208.559C286.016 149.915 249.142 91.3608 191.501 78.0325C163.799 71.6273 135.404 76.5054 111.547 91.7686C87.3124 107.274 70.6541 131.58 64.6416 160.207L64.3262 160.141Z" fill="white"/>
<path d="M151.562 298.689C143.416 298.689 135.242 297.592 127.195 295.374C100.904 288.128 79.154 269.945 65.9503 244.175C39.2411 192.045 56.7077 125.032 104.886 94.7909L105.051 95.0541L104.886 94.7909C127.768 80.4282 154.277 76.3498 179.524 83.3089C205.814 90.5545 227.565 108.738 240.769 134.508C267.478 186.638 250.011 253.652 201.833 283.892C186.243 293.678 168.971 298.689 151.562 298.689ZM155.159 80.6157C137.864 80.6157 120.705 85.595 105.215 95.3173C57.3032 125.391 39.936 192.041 66.5015 243.892C79.6254 269.505 101.238 287.576 127.359 294.775C152.437 301.688 178.769 297.636 201.504 283.366C249.417 253.292 266.784 186.642 240.218 134.792C227.094 109.178 205.481 91.1068 179.36 83.9076C171.368 81.705 163.249 80.6157 155.159 80.6157Z" fill="white"/>
<path d="M131.766 284.217C122.891 284.217 113.978 282.932 105.248 280.235C82.2574 273.132 63.5033 257.099 52.441 235.09C40.0484 210.433 38.5505 180.332 48.3325 152.505C67.5867 97.7339 124.437 65.8987 175.069 81.5414C198.06 88.6445 216.814 104.677 227.876 126.686C240.269 151.342 241.767 181.444 231.985 209.27C216.051 254.598 174.364 284.217 131.766 284.217ZM148.546 78.1557C106.194 78.1557 64.7443 107.617 48.8948 152.704C39.1667 180.378 40.6535 210.309 52.9736 234.821C63.9624 256.683 82.5897 272.609 105.424 279.664C155.749 295.214 212.274 263.545 231.423 209.071C241.151 181.397 239.664 151.467 227.343 126.955C216.355 105.093 197.728 89.1672 174.893 82.1122C166.222 79.4334 157.362 78.1557 148.546 78.1557Z" fill="white"/>
<path d="M134.003 261.742C122.108 261.742 110.275 259.547 98.9839 255.139C75.7782 246.08 57.6415 228.583 47.9156 205.872C27.2896 157.707 50.8219 100.367 100.373 78.0504C125.023 66.9488 152.089 66.1013 176.585 75.6634C199.792 84.7224 217.928 102.22 227.655 124.932C248.28 173.096 224.748 230.436 175.197 252.752C161.909 258.737 147.914 261.742 134.003 261.742ZM141.567 69.6358C127.734 69.6358 113.823 72.6235 100.609 78.575C51.3411 100.764 27.9402 157.767 48.4432 205.644C58.108 228.214 76.1306 245.601 99.1926 254.604C123.544 264.109 150.452 263.266 174.961 252.228C224.228 230.04 247.63 173.036 227.127 125.158C217.463 102.589 199.439 85.2018 176.377 76.1991C165.155 71.8187 153.389 69.6358 141.567 69.6358Z" fill="white"/>
<path d="M148.461 248.361C135.429 248.361 122.394 245.418 110.128 239.565C64.1028 217.602 43.1691 161.026 63.4651 113.448C73.3881 90.1841 91.5146 72.5798 114.505 63.8769C137.076 55.3334 161.675 56.4354 183.772 66.9798C229.798 88.9424 250.731 145.519 230.436 193.097C220.513 216.361 202.387 233.965 179.396 242.668C169.354 246.469 158.908 248.361 148.461 248.361ZM145.439 58.7375C135.058 58.7375 124.68 60.6172 114.7 64.3947C91.8514 73.0437 73.8365 90.5414 63.9726 113.665C43.7922 160.975 64.6039 217.229 110.366 239.066C132.327 249.545 156.774 250.64 179.202 242.15C202.05 233.501 220.065 216.003 229.929 192.88C250.109 145.57 229.297 89.316 183.534 67.4793C171.345 61.6629 158.39 58.7375 145.439 58.7375Z" fill="white"/>
<path d="M157.453 245.849C145.242 245.849 133.185 242.958 122.035 237.219C100.939 226.36 85.6093 206.855 78.8729 182.296C65.4419 133.34 91.3272 79.9055 136.575 63.1815C157.741 55.3577 180.225 56.6223 199.882 66.7411C220.979 77.6004 236.308 97.1057 243.045 121.664C256.476 170.621 230.591 224.055 185.343 240.779L185.251 240.529L185.343 240.779C176.182 244.165 166.772 245.849 157.453 245.849ZM164.464 58.6443C155.206 58.6443 145.861 60.3169 136.759 63.6809C91.7639 80.3115 66.0256 133.459 79.3847 182.155C86.0819 206.568 101.315 225.955 122.279 236.746C141.802 246.795 164.134 248.05 185.159 240.279C230.154 223.649 255.892 170.502 242.533 121.805C235.836 97.3922 220.603 78.005 199.64 67.2147C188.568 61.5155 176.591 58.6443 164.464 58.6443Z" fill="white"/>
<path d="M163.166 249.179C149.861 249.179 136.643 245.941 124.638 239.106C106.658 228.869 93.7391 211.846 88.2626 191.172C82.1475 168.089 86.0007 142.411 98.8344 120.722C124.138 77.9582 176.885 61.4776 216.413 83.9836C234.392 94.2204 247.311 111.244 252.787 131.917C258.902 155 255.049 180.678 242.216 202.368C224.597 232.144 193.668 249.179 163.166 249.179ZM177.881 74.4211C147.551 74.4211 116.8 91.3628 99.2744 120.983C86.5103 142.555 82.6768 168.09 88.7567 191.041C94.1982 211.58 107.03 228.492 124.89 238.66C136.813 245.449 149.954 248.667 163.169 248.668C193.499 248.671 224.25 231.726 241.776 202.107C254.54 180.534 258.373 155 252.293 132.049C246.852 111.509 234.02 94.5976 216.16 84.4289C204.238 77.6405 191.096 74.4211 177.881 74.4211Z" fill="white"/>
<path d="M168.165 257.712C152.199 257.713 136.65 253.136 123.098 244.271C104.902 232.368 92.5 214.087 88.1765 192.794C79.1432 148.306 108.445 104.159 153.496 94.3834C175.587 89.5895 198.02 93.6689 216.667 105.867C234.864 117.77 247.266 136.052 251.589 157.344C260.623 201.833 231.321 245.98 186.27 255.755C180.234 257.065 174.169 257.712 168.165 257.712ZM171.599 92.9192C165.629 92.9192 159.604 93.5626 153.6 94.8654C108.811 104.583 79.6786 148.47 88.6591 192.696C92.9558 213.858 105.282 232.028 123.367 243.858C141.903 255.985 164.205 260.038 186.166 255.273C230.955 245.555 260.087 201.668 251.106 157.442C246.81 136.28 234.484 118.111 216.399 106.28C202.93 97.4692 187.469 92.9192 171.599 92.9192Z" fill="white"/>
<path d="M161.01 265.987C144.552 265.987 128.517 260.418 114.926 249.819C80.3047 222.818 72.4378 171.165 97.3896 134.676L97.5849 134.81L97.3896 134.676C109.533 116.917 127.52 105.375 148.035 102.177C168.371 99.0084 188.766 104.436 205.468 117.463C240.09 144.464 247.956 196.117 223.005 232.605C210.861 250.364 192.875 261.906 172.36 265.104C168.571 265.695 164.779 265.987 161.01 265.987ZM159.383 101.769C155.638 101.769 151.872 102.059 148.108 102.646C127.723 105.824 109.849 117.294 97.7802 134.944C72.967 171.23 80.789 222.595 115.217 249.444C131.815 262.39 152.08 267.785 172.288 264.635C192.672 261.458 210.545 249.987 222.614 232.337C247.427 196.052 239.605 144.687 205.178 117.837C191.672 107.304 175.736 101.769 159.383 101.769Z" fill="white"/>
<path d="M143.774 262.393C128.57 262.394 114.024 257.264 102.02 247.521C86.1799 234.664 76.2604 214.695 74.8044 192.735C71.8975 148.896 102.499 108.48 143.02 102.643L143.052 102.869L143.02 102.643C161.713 99.9495 180.028 104.981 194.598 116.805C210.439 129.662 220.359 149.631 221.815 171.592C224.722 215.432 194.121 255.847 153.599 261.685C150.307 262.159 147.024 262.393 143.774 262.393ZM152.845 102.39C149.615 102.39 146.356 102.624 143.085 103.095C102.794 108.899 72.3673 149.098 75.259 192.705C76.7066 214.539 86.5649 234.389 102.307 247.166C116.777 258.911 134.968 263.906 153.534 261.232C193.825 255.428 224.252 215.229 221.361 171.622C219.913 149.788 210.054 129.937 194.311 117.16C182.39 107.485 167.944 102.39 152.845 102.39Z" fill="white"/>
<path d="M136.22 246.727C119.08 246.727 103.09 240.717 90.6139 229.461C61.4923 203.189 60.8339 156.183 89.1461 124.678C117.458 93.1731 164.185 88.9165 193.305 115.188C207.414 127.917 215.336 145.828 215.611 165.622C215.886 185.41 208.485 204.711 194.772 219.97C181.059 235.229 162.675 244.621 143.005 246.416C140.729 246.624 138.463 246.727 136.22 246.727ZM147.628 98.3996C126.694 98.3996 105.221 107.448 89.4717 124.972C61.3217 156.297 61.9655 203.024 90.9069 229.134C104.924 241.78 123.412 247.766 142.966 245.978C162.525 244.194 180.808 234.853 194.446 219.676C208.085 204.5 215.446 185.305 215.172 165.628C214.9 145.957 207.029 128.16 193.012 115.514C180.261 104.012 164.112 98.3996 147.628 98.3996Z" fill="white"/>
<path d="M144.781 232.209C105.6 232.209 73.7227 200.27 73.7227 161.012C73.7227 121.754 105.6 89.8145 144.781 89.8145C183.963 89.8145 215.84 121.753 215.84 161.012C215.84 200.27 183.963 232.209 144.781 232.209ZM144.781 90.2374C105.832 90.2374 74.1446 121.986 74.1446 161.012C74.1446 200.037 105.832 231.786 144.781 231.786C183.731 231.786 215.418 200.037 215.418 161.012C215.418 121.986 183.731 90.2374 144.781 90.2374Z" fill="white"/>
</g>
<defs>
<clipPath id="clip0_1589_2766">
<rect width="334" height="342" fill="white"/>
</clipPath>
</defs>
</svg>